<svg width="34" height="47" viewBox="0 0 34 47" fill="none" xmlns="http://www.w3.org/2000/svg">
<g clip-path="url(#clip0_172_290)">
<path d="M1.2507 9.344C1.2507 4.67303 5.01252 0.886475 9.653 0.886475H24.0702C28.7107 0.886475 32.4725 4.67303 32.4725 9.344C32.4725 12.3017 30.9642 14.9048 28.6795 16.4164C30.9642 17.9281 32.4725 20.5312 32.4725 23.4889C32.4725 28.1599 28.7107 31.9465 24.0702 31.9465H23.8878C21.7123 31.9465 19.7299 31.1143 18.2377 29.7489V37.5416C18.2377 42.2749 14.3776 46.091 9.69826 46.091C5.06939 46.091 1.2507 42.316 1.2507 37.6334C1.2507 34.6759 2.75888 32.0729 5.04334 30.5612C2.75888 29.0495 1.2507 26.4465 1.2507 23.4889C1.2507 20.5312 2.75902 17.9281 5.04363 16.4164C2.75902 14.9048 1.2507 12.3017 1.2507 9.344ZM15.4855 17.8017H9.653C6.53254 17.8017 4.00294 20.348 4.00294 23.4889C4.00294 26.6177 6.51303 29.1564 9.61686 29.176C9.62888 29.176 9.64089 29.176 9.653 29.176H15.4855V17.8017ZM18.2377 23.4889C18.2377 26.6298 20.7673 29.1761 23.8878 29.1761H24.0702C27.1907 29.1761 29.7203 26.6298 29.7203 23.4889C29.7203 20.348 27.1907 17.8017 24.0702 17.8017H23.8878C20.7673 17.8017 18.2377 20.348 18.2377 23.4889ZM9.653 31.9465C9.64089 31.9465 9.62888 31.9464 9.61686 31.9464C6.51303 31.9659 4.00294 34.5046 4.00294 37.6334C4.00294 40.7629 6.56633 43.3207 9.69826 43.3207C12.8807 43.3207 15.4855 40.7217 15.4855 37.5416V31.9465H9.653ZM9.653 3.65682C6.53254 3.65682 4.00294 6.20307 4.00294 9.344C4.00294 12.485 6.53254 15.0312 9.653 15.0312H15.4855V3.65682H9.653ZM18.2377 15.0312H24.0702C27.1907 15.0312 29.7203 12.485 29.7203 9.344C29.7203 6.20307 27.1907 3.65682 24.0702 3.65682H18.2377V15.0312Z" fill="white"/>
</g>
<defs>
<clipPath id="clip0_172_290">
<rect width="33.6818" height="45.2045" fill="white" transform="translate(0.0227203 0.886475)"/>
</clipPath>
</defs>
</svg>
