<svg width="45" height="47" viewBox="0 0 45 47" fill="none" xmlns="http://www.w3.org/2000/svg">
<g clip-path="url(#clip0_172_294)">
<path d="M15.4597 36.661C15.4597 36.841 15.2542 36.9851 14.9951 36.9851C14.7002 37.0121 14.4947 36.868 14.4947 36.661C14.4947 36.4809 14.7002 36.3369 14.9594 36.3369C15.2274 36.3099 15.4597 36.4539 15.4597 36.661ZM12.6809 36.2559C12.6184 36.4359 12.7971 36.643 13.0651 36.697C13.2974 36.787 13.5655 36.697 13.6191 36.517C13.6727 36.3369 13.5029 36.1299 13.2349 36.0488C13.0026 35.9858 12.7434 36.0758 12.6809 36.2559ZM16.6302 36.1029C16.3711 36.1659 16.1924 36.3369 16.2192 36.544C16.246 36.724 16.4783 36.841 16.7464 36.778C17.0055 36.715 17.1842 36.544 17.1574 36.3639C17.1306 36.1929 16.8893 36.0759 16.6302 36.1029ZM22.5095 1.60669C10.1165 1.60669 0.63636 11.0859 0.63636 23.5719C0.63636 33.5553 6.87307 42.0983 15.7814 45.105C16.9251 45.312 17.3272 44.6009 17.3272 44.0157C17.3272 43.4576 17.3004 40.3789 17.3004 38.4884C17.3004 38.4884 11.0458 39.8387 9.73231 35.8058C9.73231 35.8058 8.71371 33.1862 7.24835 32.511C7.24835 32.511 5.2022 31.0977 7.39131 31.1247C7.39131 31.1247 9.61615 31.3047 10.8403 33.4472C12.7971 36.9221 16.0762 35.9228 17.354 35.3287C17.5595 33.8883 18.1403 32.8891 18.7836 32.295C13.7889 31.7368 8.74945 31.0076 8.74945 22.3476C8.74945 19.872 9.42852 18.6297 10.8581 17.0453C10.6258 16.4602 9.86634 14.0476 11.0904 10.9329C12.9579 10.3478 17.2557 13.3635 17.2557 13.3635C19.0427 12.8594 20.9638 12.5983 22.8669 12.5983C24.7701 12.5983 26.6912 12.8594 28.4782 13.3635C28.4782 13.3635 32.776 10.3388 34.6434 10.9329C35.8675 14.0566 35.108 16.4602 34.8757 17.0453C36.3053 18.6387 37.181 19.881 37.181 22.3476C37.181 31.0347 31.9182 31.7278 26.9235 32.295C27.7455 33.0061 28.4424 34.3564 28.4424 36.4719C28.4424 39.5057 28.4156 43.2596 28.4156 43.9977C28.4156 44.5829 28.8267 45.294 29.9614 45.087C38.8965 42.0983 44.9545 33.5553 44.9545 23.5719C44.9545 11.0859 34.9025 1.60669 22.5095 1.60669ZM9.32129 32.655C9.20514 32.7451 9.23194 32.9521 9.38384 33.1232C9.5268 33.2672 9.73231 33.3302 9.84847 33.2132C9.96462 33.1232 9.93782 32.9161 9.78592 32.7451C9.64296 32.601 9.43745 32.538 9.32129 32.655ZM8.3563 31.9259C8.29376 32.0429 8.38311 32.1869 8.56181 32.277C8.70477 32.367 8.88347 32.34 8.94602 32.2139C9.00856 32.0969 8.91921 31.9529 8.74051 31.8629C8.56181 31.8088 8.41885 31.8358 8.3563 31.9259ZM11.2513 35.1306C11.1083 35.2477 11.1619 35.5177 11.3674 35.6888C11.5729 35.8958 11.8321 35.9228 11.9482 35.7788C12.0644 35.6618 12.0108 35.3917 11.8321 35.2206C11.6355 35.0136 11.3674 34.9866 11.2513 35.1306ZM10.2327 33.8073C10.0897 33.8973 10.0897 34.1314 10.2327 34.3384C10.3756 34.5455 10.6169 34.6355 10.733 34.5455C10.876 34.4285 10.876 34.1944 10.733 33.9874C10.608 33.7803 10.3756 33.6903 10.2327 33.8073Z" fill="white"/>
</g>
<defs>
<clipPath id="clip0_172_294">
<rect width="44.3182" height="46.0909" fill="white" transform="translate(0.63636 0.886475)"/>
</clipPath>
</defs>
</svg>
