<svg width="47" height="47" viewBox="0 0 47 47" fill="none" xmlns="http://www.w3.org/2000/svg">
<path d="M10.5154 46.9773H0.775964V15.613H10.5154V46.9773ZM5.64042 11.3346C2.52608 11.3346 0 8.75496 0 5.64054C2.22911e-08 4.14458 0.594257 2.70988 1.65204 1.65208C2.70982 0.59427 4.14449 0 5.64042 0C7.13635 0 8.57101 0.59427 9.6288 1.65208C10.6866 2.70988 11.2808 4.14458 11.2808 5.64054C11.2808 8.75496 8.75371 11.3346 5.64042 11.3346ZM46.9668 46.9773H37.2484V31.7093C37.2484 28.0706 37.175 23.4042 32.1847 23.4042C27.121 23.4042 26.345 27.3575 26.345 31.4472V46.9773H16.6161V15.613H25.957V19.8913H26.0934C27.3936 17.4271 30.5698 14.8265 35.3085 14.8265C45.1653 14.8265 46.9773 21.3175 46.9773 29.7484V46.9773H46.9668Z" fill="white"/>
</svg>
