<svg width="39" height="46" viewBox="0 0 39 46" fill="none" xmlns="http://www.w3.org/2000/svg">
<g clip-path="url(#clip0_172_288)">
<path d="M34.1511 3.54248H4.8837C2.18504 3.54248 -6.68523e-06 5.71511 -6.68523e-06 8.38978C-0.00871204 8.38978 -6.68523e-06 8.04355 -6.68523e-06 37.4736C-6.68523e-06 40.1483 2.18504 42.3209 4.87499 42.3209H34.1424C36.8236 42.3036 38.9913 40.1396 38.9913 37.4736V8.38978C39 5.72377 36.8324 3.55979 34.1511 3.54248V3.54248ZM17.1495 32.9119C17.1321 34.1843 16.0962 35.2144 14.8078 35.2144H7.60847C6.32008 35.2231 5.26673 34.193 5.25803 32.9119V10.9086C5.25803 9.62757 6.30267 8.58021 7.59977 8.58021H14.8165C16.1049 8.58021 17.1583 9.61892 17.1583 10.9086V32.9119H17.1495ZM33.9596 23.2173C33.9596 24.4984 32.9149 25.5458 31.6178 25.5458H24.5665C23.2781 25.5458 22.2248 24.5071 22.2248 23.2173V10.9173C22.2248 9.63623 23.2694 8.58887 24.5578 8.58887H31.6178C32.9062 8.58887 33.9596 9.62757 33.9596 10.9173V23.2173Z" fill="white"/>
</g>
<defs>
<clipPath id="clip0_172_288">
<rect width="39" height="44.3182" fill="white" transform="translate(0 0.772705)"/>
</clipPath>
</defs>
</svg>
