<svg width="210" height="214" viewBox="0 0 210 214" fill="none" xmlns="http://www.w3.org/2000/svg">
<path d="M2.47422 186.888L2 186.439" stroke="#CCDDE2" stroke-width="3.97"/>
<path d="M157.745 139.93L156.347 133.634C155.828 131.817 155.421 129.97 155.129 128.103C153.684 118.66 152.617 106.927 152.237 102.533L156.74 103.968L155.17 100.473C155.17 100.473 149.997 83.0649 160.345 75.3988C152.861 72.8519 146.866 74.1615 139.863 72.5504C137.165 71.9223 134.317 71.3727 131.17 70.8576L128.893 70.4588C128.802 76.6456 124.496 78.0494 120.954 78.7215C112.232 80.3923 106.193 74.0296 106.444 68.4897C96.7623 68.5996 87.1931 69.8778 77.6113 71.5046C78.8487 75.135 81.4553 86.0138 74.1222 98.8774L75.0644 98.846C81.0094 96.7764 85.114 94.8513 85.114 94.8513C85.114 94.8513 85.1486 96.2205 85.1486 98.5382V98.8523C85.1329 101.974 84.8597 127.048 80.6388 145.442C80.3247 146.042 80.5697 145.304 80.6388 145.97C80.3826 146.481 80.2067 147.028 80.1175 147.593L80.3216 146.78C79.1847 148.41 82.03 150.385 86.141 151.381C96.8879 154.006 156.128 158.604 159.472 147.593C159.669 146.937 159.676 146.237 159.491 145.577C159.005 143.666 158.422 141.782 157.745 139.93Z" fill="#2945FF"/>
<path d="M80.3247 206.802C77.638 206.712 74.9542 207.054 72.3761 207.816C67.8569 209.201 63.8715 212.458 58.853 211.443C45.7978 208.812 48.5238 191.404 60.2254 189.186C61.3465 189.161 62.4677 189.155 63.5795 189.155H63.6548C69.044 189.155 74.2949 189.296 78.6037 187.808C78.1986 188.181 67.6998 197.493 80.3247 206.802Z" fill="#2945FF"/>
<path d="M128.884 70.4463V70.462C128.792 76.6488 124.487 78.0526 120.944 78.7247C112.223 80.3955 106.184 74.0327 106.435 68.4929" stroke="black" stroke-width="3.97"/>
<path d="M60.2348 189.187C48.5332 191.404 45.8072 208.812 58.8624 211.443C63.8872 212.458 67.8663 209.201 72.3855 207.816C74.9656 207.054 77.6516 206.711 80.3405 206.802C82.092 206.85 83.8381 207.019 85.5663 207.307C104.538 210.42 123.79 211.473 142.988 210.448C155.967 209.732 169.195 208.105 181.513 203.762C190.799 200.48 200.984 194.742 205.556 185.861C207.178 182.733 208.015 179.258 207.997 175.736C207.997 167.357 204.118 161.402 198.324 157.207C197.517 156.626 196.678 156.079 195.811 155.555C187.125 150.414 175.291 148.419 165.367 147.823C164.761 147.782 164.161 147.747 163.574 147.722C162.792 147.69 162.026 147.486 161.332 147.125C160.61 146.764 159.984 146.238 159.504 145.59C159.036 144.976 158.707 144.267 158.54 143.514L157.751 139.934L156.354 133.637L155.129 128.103C153.684 118.66 152.617 106.927 152.237 102.533" stroke="black" stroke-width="3.97"/>
<path d="M169.472 180.742C165.599 189.595 156.024 186.564 145.503 180.192C138.974 176.238 133.403 175.676 130.115 175.795C134.75 175.381 138.801 173.952 139.941 168.71C140.862 164.452 138.462 160.545 134.31 159.289C144.291 158.849 154.532 159.603 162.654 165.884C162.66 165.884 173.35 171.879 169.472 180.742Z" fill="#2945FF"/>
<path d="M134.244 49.9355C134.209 49.9402 134.173 49.9402 134.138 49.9355C134.235 50.4254 134.42 50.9499 134.543 51.4712C134.641 51.8653 134.683 52.2713 134.668 52.6772C134.537 54.5772 133.189 55.6073 131.361 55.6576C131.456 56.5501 130.992 57.4089 130.193 57.8182C129.213 58.3333 127.609 58.2171 126.87 57.3095C125.997 56.2574 126.431 54.9509 126.962 53.7984C127.153 53.3932 127.345 53.0101 127.502 52.6615C127.693 52.2281 127.86 51.7979 128.007 51.3582C128.53 49.7312 128.935 48.0687 129.22 46.3836C129.567 44.6815 129.797 42.9574 129.907 41.2237C129.791 40.8029 129.867 40.1936 129.7 39.7539C129.458 39.0753 129.021 38.4832 128.444 38.0518C127.25 37.1724 125.661 37.229 124.393 36.4501C123.244 35.7347 122.338 34.6894 121.792 33.4509C121.685 33.1934 121.585 32.8605 121.434 32.5716C121.367 32.4146 121.265 32.275 121.136 32.1633C120.564 31.6828 120.231 32.5307 119.88 32.8605C119.15 33.5341 118.166 33.8613 117.179 33.7587C116.81 33.71 116.451 33.6041 116.114 33.4446C115.867 33.3103 115.636 33.1481 115.426 32.961C115.177 32.7184 114.887 32.5217 114.569 32.38C113.972 32.157 113.941 33.1431 113.856 33.4854C113.741 34.0848 113.358 34.5986 112.817 34.8798C112.494 35.0385 112.14 35.1232 111.78 35.1279C111.361 35.1448 110.943 35.0885 110.543 34.9615C110.157 34.8469 109.79 34.6766 109.453 34.4559C109.33 34.3729 109.17 34.3672 109.041 34.4413C108.913 34.5154 108.837 34.6562 108.847 34.8045C108.963 38.0518 105.926 39.1824 104.68 39.5153C104.261 44.8747 105.57 50.2273 108.417 54.7876C108.312 55.4475 108.043 56.0705 107.635 56.5997C105.584 57.1148 103.216 56.5558 102.327 54.7876C101.385 52.9033 101.514 50.2935 102.977 48.9494C101.963 48.7924 101.68 47.2943 102.261 46.415C102.312 46.3302 102.334 46.28 102.302 46.1983C102.177 45.856 100.685 45.5702 100.276 45.4446C99.0953 45.0229 98.1825 44.0683 97.8143 42.8693C96.9507 40.0209 99.1428 36.9809 101.881 36.2931C101.068 34.8547 99.997 33.6927 99.5416 32.0314C99.0862 30.37 99.3438 28.6428 100.613 27.3865C101.661 26.3893 103.143 25.9899 104.551 26.325C104.955 26.6187 105.313 26.9712 105.612 27.3708C105.428 27.0982 105.28 26.8025 105.173 26.4915C106.102 26.807 106.917 27.3905 107.515 28.1685C106.444 26.5669 106.843 24.3811 108.046 22.9678C109.5 21.2657 112.358 20.8919 114.349 21.765C114.493 21.8299 114.633 21.9044 114.767 21.988C114.955 22.2235 115.147 22.4559 115.338 22.6789C115.36 22.6186 115.385 22.5599 115.414 22.503C115.818 22.9185 116.201 23.3546 116.56 23.8095C117.854 20.1288 122.995 20.1194 125.712 22.0382C126.351 22.4947 126.875 23.0949 127.241 23.7906C127.379 24.4021 127.367 25.0377 127.207 25.6435C127.04 26.2245 127.172 26.6642 127.546 26.7898C127.827 26.8582 128.123 26.8202 128.378 26.6831C129.373 26.234 130.196 25.6844 131.352 25.81C135.121 26.2088 137.869 31.1081 135.636 34.3051C135.503 34.5037 135.353 34.6898 135.187 34.861C134.873 35.175 134.166 35.5425 134.009 35.9916C134.005 36.0027 134.005 36.015 134.009 36.0261C133.726 36.9683 135.812 37.1787 136.367 37.4205C141.292 39.4964 140.252 49.6215 134.244 49.9355Z" fill="#2E2E2E"/>
<path d="M48.6337 24.3999C47.4623 21.9063 48.3196 18.4109 49.6543 15.7697C50.675 13.719 49.8616 10.4308 47.255 10.0634C44.5478 9.69909 43.0341 13.1128 42.1893 15.173C41.2551 17.4563 40.7587 19.8949 40.7258 22.3617C40.6565 24.9851 40.849 27.6089 41.3005 30.1942C41.5078 31.3059 41.8815 32.3706 42.1453 33.4572C42.4374 34.6443 42.1202 35.8251 41.69 36.9369C40.0035 41.2049 37.6293 45.1996 35.8423 49.4362C33.911 53.9206 32.3614 58.5599 31.21 63.3047C28.9928 72.6729 28.5343 82.6064 31.1252 91.9495C36.0245 109.606 60.8503 103.808 75.0675 98.8587C81.0125 96.7891 85.1172 94.8639 85.1172 94.8639C85.1172 94.8639 85.1517 96.2332 85.1517 98.5509V98.8649C85.1706 108.183 84.7968 131.596 80.7832 145.505C80.4262 146.738 79.2935 147.583 78.0102 147.575C67.9039 147.534 25.3498 148.969 33.4147 176.452C36.1407 185.735 46.696 189.073 60.1814 189.19H60.2411C61.3371 189.19 62.4583 189.19 63.5951 189.158H63.6705C68.6799 188.984 73.6758 188.533 78.6351 187.805C96.2032 185.33 114.896 180.048 126.971 176.241C127.667 176.058 128.379 175.939 129.097 175.886C129.395 175.852 129.725 175.827 130.096 175.811H130.127C133.409 175.679 138.98 176.241 145.516 180.208C156.037 186.58 165.615 189.61 169.484 180.757C173.353 171.904 162.66 165.884 162.66 165.884C154.539 159.603 144.297 158.858 134.317 159.289C131.236 159.424 128.171 159.681 125.209 159.917C113.357 160.861 101.502 161.803 89.6458 162.743L74.1128 163.999" stroke="black" stroke-width="3.97"/>
<path d="M52.8577 22.7354C52.8577 22.7354 51.1649 19.3154 53.2597 13.9671C54.1233 11.7687 55.1189 9.10866 54.7106 6.69987C54.5828 5.80809 54.1089 5.00251 53.3916 4.45754C52.8759 4.0842 52.2337 3.92957 51.6046 4.02728C49.1738 4.36646 47.8109 7.41591 46.988 10.0477" stroke="black" stroke-width="3.97"/>
<path d="M56.3939 20.7506C56.3939 20.7506 54.786 18.0278 56.978 13.8415C57.3455 13.1443 57.9673 12.0294 58.5483 10.7606C60.062 7.57926 61.4564 3.38665 58.407 2.18069C56.8713 1.57457 54.9524 2.59524 53.9474 3.73525C53.7432 3.96703 53.5524 4.21029 53.3759 4.46385" stroke="black" stroke-width="3.97"/>
<path d="M58.5577 10.7417C59.335 10.5728 60.133 10.5199 60.9257 10.5847C62.7032 10.7417 64.754 11.4546 65.4449 13.1662C65.8186 14.1084 65.6836 15.8074 64.7289 16.3382C63.5166 17.004 62.0312 16.5643 60.8189 17.1861C59.4654 17.8833 58.9346 19.7519 59.1325 21.1651C59.1709 21.7192 59.3917 22.2449 59.7606 22.66C61.9024 24.8019 63.3722 18.8914 64.1856 17.9178C65.291 16.5894 66.9084 16.8281 68.0641 17.9492C70.1746 19.9906 69.4931 23.5425 68.7739 26.0361C67.7658 29.5252 66.0353 33.6707 63.1209 35.9822C62.0783 36.805 60.3447 37.8665 60.2128 39.3362C60.2128 39.3362 54.3432 58.2265 54.6949 68.5997C54.7465 70.2983 55.5271 71.8924 56.8373 72.9747C58.1475 74.057 59.8603 74.5226 61.5381 74.2526C64.6786 73.7407 67.838 73.2602 70.9597 72.6824C73.1769 72.2772 75.3847 71.8784 77.6019 71.4952C87.46 69.8182 97.3024 68.5149 107.267 68.4709C108.263 68.4727 109.108 67.7394 109.246 66.753L109.434 65.3869L110.675 57.7209" stroke="black" stroke-width="3.97"/>
<path d="M186.72 26.0612C187.891 23.5676 187.034 20.0722 185.699 17.4311C184.669 15.3803 185.492 12.0922 188.098 11.7247C188.189 11.7247 188.28 11.709 188.365 11.709C190.931 11.5834 192.376 14.9155 193.189 16.9003C194.135 19.2616 194.623 21.781 194.627 24.3245C194.652 26.4686 194.493 28.6109 194.153 30.7281C193.864 32.4867 192.931 34.2329 193.067 36.0418C193.173 37.5618 194.072 39.0002 194.703 40.3695C197.426 46.2328 200.613 51.8952 202.799 57.9564C203.632 60.2263 204.285 62.5586 204.749 64.9315C206.391 73.5511 205.796 82.4474 203.022 90.7718C201.508 95.2753 198.845 99.7097 195.007 102.599C194.61 102.898 194.202 103.181 193.786 103.447C188.811 106.669 182.423 107.624 176.604 107.498C170.423 107.366 164.205 106.104 158.273 104.417C157.236 104.12 156.204 103.806 155.176 103.475C154.096 103.133 153.025 102.784 151.954 102.42C150.833 102.031 149.712 101.638 148.6 101.223" stroke="black" stroke-width="3.97"/>
<path d="M188.365 11.709C187.542 9.07726 186.167 6.02781 183.749 5.68863C183.119 5.59092 182.477 5.74555 181.962 6.11888C181.244 6.66385 180.77 7.46943 180.643 8.36122C180.234 10.77 181.23 13.4269 182.093 15.6284C184.188 20.9673 182.492 24.3999 182.492 24.3999" stroke="black" stroke-width="3.97"/>
<path d="M181.962 6.11885C181.786 5.86132 181.588 5.62264 181.39 5.3871C180.376 4.25023 178.466 3.22956 176.927 3.83568C173.881 5.03851 175.275 9.23425 176.789 12.4156C177.386 13.6718 178.008 14.7993 178.359 15.4965C180.558 19.6891 178.94 22.4056 178.94 22.4056" stroke="black" stroke-width="3.97"/>
<path d="M176.789 12.4157C176.012 12.2472 175.214 12.1933 174.421 12.2555C172.644 12.4157 170.593 13.1286 169.902 14.8401C169.528 15.7823 169.663 17.4813 170.618 18.0121C171.83 18.6779 173.316 18.2351 174.528 18.86C175.882 19.5572 176.412 21.4258 176.214 22.8391C176.176 23.3931 175.955 23.9188 175.586 24.334C173.445 26.4758 171.975 20.5653 171.161 19.5918C170.056 18.2602 168.439 18.502 167.283 19.6232C165.006 21.8215 165.995 26.2497 166.95 28.9097C167.989 31.8147 169.334 34.8767 171.485 37.1379C175.065 40.9065 175.454 46.8735 176.403 51.7131C176.792 53.7167 177.166 55.733 177.464 57.7523C178.061 61.6623 178.407 65.6036 178.092 69.5544C177.931 71.7471 176.862 73.773 175.143 75.1441C173.425 76.5152 171.212 77.1073 169.038 76.7776C154.994 74.6264 127.813 70.2579 127.813 70.2579C127.354 70.1787 127.017 69.7816 127.015 69.3157L126.883 57.3221" stroke="black" stroke-width="3.97"/>
<path d="M104.667 39.5058C104.092 45.6832 106.237 52.6677 110.257 57.2718C117.757 65.8485 124.075 57.2718 124.075 57.2718" stroke="black" stroke-width="3.97"/>
<path d="M129.989 41.4215C129.769 41.0133 129.898 40.2753 129.71 39.7571C129.466 39.0783 129.029 38.4855 128.453 38.0518C127.254 37.1756 125.668 37.2289 124.402 36.4564C123.253 35.7373 122.345 34.6905 121.795 33.4509C121.62 33.0552 121.481 32.4522 121.145 32.1664C120.571 31.6859 120.238 32.5307 119.889 32.8636C118.871 33.8122 117.378 34.0437 116.12 33.4477C115.555 33.1682 115.163 32.6061 114.572 32.3831C113.982 32.1601 113.944 33.1431 113.856 33.4886C113.742 34.0873 113.362 34.6017 112.823 34.8861C111.783 35.398 110.364 35.062 109.459 34.4559C109.336 34.3705 109.174 34.364 109.044 34.4392C108.913 34.5144 108.838 34.6577 108.85 34.8076C108.991 38.8903 104.155 39.622 104.155 39.622" stroke="black" stroke-width="3.97"/>
<circle cx="111.491" cy="44.113" r="4.37789" stroke="black" stroke-width="3.97"/>
<circle cx="122.838" cy="43.7235" r="4.37789" stroke="black" stroke-width="3.97"/>
<path d="M109.66 44.5527C109.66 44.5527 111.425 46.5783 113.241 44.5527" stroke="black" stroke-width="3.97"/>
<path d="M121.054 44.5527C121.054 44.5527 122.819 46.5783 124.638 44.5527" stroke="black" stroke-width="3.97"/>
<circle cx="117.691" cy="52.6677" r="1.542" stroke="black" stroke-width="3.97"/>
<path d="M115.869 44.113C115.869 44.113 116.862 42.4956 118.46 43.7236" stroke="black" stroke-width="3.97"/>
<path d="M113.856 37.6152C113.856 37.6152 109.312 34.1418 105.502 37.4174" stroke="black" stroke-width="3.97"/>
<path d="M127.153 35.7937C127.153 35.7937 121.755 33.9094 119.148 38.1962" stroke="black" stroke-width="3.97"/>
<path d="M108.272 54.6369C108.251 56.1296 107.277 57.4412 105.854 57.8936C103.612 58.5562 101.238 56.8729 100.264 54.9289C99.5404 53.5589 99.6472 51.8987 100.54 50.6327C100.619 50.5071 100.643 50.3545 100.606 50.2108C100.57 50.067 100.475 49.9448 100.346 49.8727C99.4589 49.3393 98.9175 48.3793 98.9198 47.3446C98.9209 47.1334 98.944 46.9228 98.9889 46.7165C99.0178 46.5621 98.9805 46.4028 98.8861 46.2773C98.7918 46.1519 98.649 46.0719 98.4927 46.0569C98.2641 46.0361 98.0373 45.9983 97.8143 45.9439C96.5473 45.4944 95.5677 44.4717 95.1731 43.1865C94.231 40.1214 96.6021 36.8489 99.551 36.1109C98.6717 34.5658 97.5066 33.319 97.0386 31.5257C96.5707 29.7325 96.8408 27.8796 98.2006 26.5417C100.32 24.4658 103.916 25.1128 105.625 27.3897C104.472 25.6624 104.902 23.307 106.2 21.7932C107.77 19.9654 110.832 19.5666 112.977 20.4962C113.997 20.9453 114.654 21.8749 115.351 22.6946C116.745 18.7501 122.26 18.7249 125.193 20.7914C126.72 21.8812 127.706 23.8566 127.219 25.6592C126.962 26.5731 127.436 27.1196 128.39 26.6987C129.345 26.2779 130.209 25.7001 131.365 25.8257C135.366 26.2496 138.208 31.7299 135.199 34.8767C134.885 35.2096 134.178 35.5582 134.021 36.0073C133.679 36.9494 135.805 37.1944 136.371 37.4362C141.339 39.5215 140.249 49.7533 134.172 49.9606C134.354 50.8305 134.769 51.7947 134.703 52.6929C134.571 54.5929 133.224 55.623 131.396 55.6827C131.488 56.5721 131.024 57.4265 130.228 57.8339C129.248 58.3553 127.643 58.2328 126.905 57.3252C125.724 55.8994 126.936 54.0307 127.533 52.6678C128.412 50.6735 128.846 48.5223 129.245 46.3867C129.61 44.6172 129.845 42.8234 129.948 41.0195V40.9442" stroke="black" stroke-width="3.97"/>
</svg>
