<svg width="205" height="237" viewBox="0 0 205 237" fill="none" xmlns="http://www.w3.org/2000/svg">
<circle cx="57.4801" cy="135.423" r="2.72113" fill="#D7E8F0"/>
<circle cx="39.4004" cy="106.209" r="1.36057" fill="#D7E8F0"/>
<circle cx="93.5606" cy="88.5118" r="1.22043" fill="#D7E8F0"/>
<circle cx="146.638" cy="46.7877" r="1.22043" fill="#D7E8F0"/>
<path d="M41.9227 213.11C41.7698 214.384 40.6182 214.802 39.5583 215.893L39.4767 215.974H12.7801C11.3577 216.011 10.0275 215.272 9.30556 214.046C8.58365 212.82 8.58365 211.299 9.30556 210.073C10.0275 208.847 11.3577 208.108 12.7801 208.145L33.7695 204.888C33.7695 204.888 33.0714 213.589 41.9227 213.11Z" fill="#2945FF"/>
<path d="M143.547 233.035C142.953 233.771 142.078 234.224 141.134 234.287C140.19 234.349 139.263 234.015 138.576 233.364C138.073 232.921 137.526 232.531 136.943 232.199C140.281 221.664 129.554 214.435 129.274 214.252C130.744 214.774 132.143 215.271 133.45 215.763C134.421 216.12 135.338 216.469 136.207 216.782C139.34 217.977 141.878 220.357 143.272 223.406C144.403 225.901 145.486 230.742 143.547 233.035Z" fill="#2945FF"/>
<path d="M89.7082 102.683C89.7082 102.683 83.7869 116.044 94.2943 129.675C94.2943 129.675 105.505 124.18 105.492 128.384C105.492 128.384 112.919 151.378 113.498 165.674C113.498 165.674 118.874 170.966 121.819 168.054C124.764 165.142 138.125 150.792 138.867 140.585C139.608 130.378 137.109 131.737 137.109 131.737C137.109 131.737 147.479 119.051 166.664 127.181C166.664 127.181 175.398 166.446 132.864 177.443C132.864 177.443 166.458 195.156 165.986 200.027C165.986 200.027 176.797 181.15 175.923 164.999C175.049 148.848 174.863 120.248 152.926 100.385L137.117 92.01L134.278 97.3478C134.278 97.3478 126.968 105.111 123.631 105.409C120.293 105.707 116.397 103.957 116.815 96.879C117.233 89.801 118.853 90.6087 115.032 91.8954C111.21 93.182 89.7082 102.683 89.7082 102.683Z" fill="#2945FF"/>
<path d="M146.592 61.5323C145.437 60.683 144.182 59.9771 142.857 59.4303L140.765 58.5513C140.304 58.3577 139.825 58.1742 139.346 58.0213C135.802 56.9181 132.976 56.7474 130.698 57.1118C129.645 57.2698 128.621 57.5796 127.656 58.0315C125.365 59.1325 123.549 61.0246 122.543 63.3591C122.237 64.0522 121.602 64.6458 120.828 65.1248C121.338 61.41 123.205 56.4085 129.595 55.6977C133.496 55.2798 137.211 56.0952 140.447 57.3818C142.648 58.5246 144.71 59.9173 146.592 61.5323Z" fill="#3FBDF1"/>
<path d="M146.592 61.5323C145.437 60.683 144.182 59.9771 142.857 59.4303L140.765 58.5513C140.304 58.3577 139.825 58.1742 139.346 58.0213C135.802 56.9181 132.976 56.7474 130.698 57.1118C129.645 57.2698 128.621 57.5796 127.656 58.0315C125.365 59.1325 123.549 61.0246 122.543 63.3591C122.237 64.0522 121.602 64.6458 120.828 65.1248C121.338 61.41 123.205 56.4085 129.595 55.6977C133.496 55.2798 137.211 56.0952 140.447 57.3818C142.648 58.5246 144.71 59.9173 146.592 61.5323Z" fill="#3FBDF1"/>
<path d="M152.187 73.7927C152.169 74.39 152.114 74.9855 152.024 75.5762C151.992 75.8648 151.945 76.1515 151.881 76.4349C151.881 76.4349 151.881 76.4655 151.881 76.4756C151.831 76.7992 151.759 77.1192 151.667 77.4336C150.768 81.0007 148.758 84.2747 145.695 86.3155C143.091 88.0506 139.896 88.6621 136.793 88.6825C136.375 88.6953 135.945 88.6825 135.519 88.6621C134.293 84.8658 139.766 83.732 138.908 80.2108C138.875 80.0693 138.834 79.9298 138.785 79.793C138.092 77.8719 135.611 78.0095 133.906 77.1585C134.039 76.4451 134.806 75.6782 135.162 74.6106C135.672 73.0284 135.02 71.8971 133.845 71.0079C133.59 70.1289 132.874 69.4461 131.967 68.8651C131.378 68.4986 130.825 68.0781 130.314 67.609C130.167 67.3339 130.044 67.0466 129.947 66.7504C129.813 66.3617 129.711 65.9629 129.641 65.558C128.976 61.7362 132.377 58.4392 136.25 58.8418C137.822 59.0165 139.373 59.3476 140.88 59.8304C141.359 59.9832 141.838 60.1667 142.299 60.3603L144.391 61.2393C145.716 61.7862 146.971 62.492 148.126 63.3413C148.144 63.3613 148.164 63.3784 148.187 63.3923C148.2 63.3923 148.187 63.4127 148.21 63.4127C149.418 63.3643 150.643 64.0446 150.208 65.1758C150.182 65.2421 150.241 65.2344 150.241 65.2803C150.813 66.1698 151.256 67.1356 151.558 68.1492C152.079 69.9825 152.292 71.8897 152.187 73.7927Z" fill="#2E2E2E"/>
<path d="M112.18 73.2602V74.9061C112.185 75.2856 111.911 75.611 111.536 75.6705L91.9172 79.2018L88.7629 79.7751C89.5273 78.6922 90.1311 77.5788 90.1413 76.7329C90.1413 75.9864 89.7005 75.459 88.5081 75.3647C86.2151 75.2017 84.5972 76.8756 83.2391 78.4986C81.9321 80.0605 80.9843 79.7725 79.0122 79.7725H66.3238C66.0039 79.7733 65.6852 79.7322 65.376 79.6502C64.8696 78.9992 64.596 78.1972 64.5989 77.3724V70.6078C64.5996 68.5691 66.2247 66.9022 68.2627 66.8497C68.2908 67.1562 68.3674 67.4564 68.4895 67.7389C68.6173 68.0814 68.8232 68.3893 69.0908 68.6383C69.3653 68.8879 69.7211 69.0292 70.0921 69.0358C70.2242 69.0328 70.3549 69.0087 70.4794 68.9645C70.8929 68.8079 71.2413 68.5161 71.4679 68.1364C72.0514 67.2395 72.1024 66.0981 72.1329 65.0229C72.1737 65.9121 72.0616 66.8064 72.2247 67.6778C72.3673 68.4421 72.7648 69.2498 73.4298 69.6269C73.5276 69.6828 73.6299 69.7305 73.7356 69.7696C73.9873 69.8608 74.2569 69.8922 74.5228 69.8613C74.899 69.834 75.2613 69.7074 75.5726 69.4944C76.1058 69.1262 76.5068 68.5966 76.7166 67.9835C76.8709 67.5418 76.9668 67.0819 77.0019 66.6153C77.0056 67.627 77.1778 68.631 77.5115 69.5861C77.631 69.9212 77.803 70.2351 78.0211 70.5161C78.1092 70.6245 78.2083 70.7235 78.3166 70.8117C78.7044 71.0914 79.177 71.2283 79.6543 71.1989C79.9494 71.1821 80.2393 71.113 80.5104 70.9951C81.5015 70.5467 82.1537 69.5046 82.3193 68.4319C82.3703 69.4638 82.9206 70.6588 83.871 71.1378C84.1583 71.295 84.4812 71.3757 84.8086 71.3722C85.0878 71.3671 85.3643 71.3154 85.6265 71.2193C86.4977 70.8896 87.1656 70.1727 87.4329 69.2804C87.7081 68.3912 87.6368 66.6968 87.2291 65.7134C88.0342 65.7949 88.9744 65.9478 89.5961 66.0803L88.8929 66.4472L112.18 73.2602Z" fill="#D7E8F0"/>
<path d="M112.935 165.361C112.527 155.679 110.568 144.15 106.167 130.562C103.752 123.094 102.623 116.954 102.488 111.922" stroke="black" stroke-width="5.15"/>
<path d="M145.405 184.23L133.751 177.458L120.173 169.56L112.935 165.353L101.298 158.586C93.2185 154.218 83.2593 155.442 76.4771 161.636L34.3046 204.124C33.686 204.746 32.8805 205.148 32.0115 205.268L12.3063 208.002C10.252 208.322 8.78445 210.161 8.92781 212.236C9.07118 214.31 10.7778 215.929 12.8566 215.964H35.9888C36.7058 215.963 37.4094 215.77 38.0271 215.406L53.4978 206.234L80.4161 190.31C84.0392 188.167 88.3018 188.47 91.8051 190.697C93.9351 192.055 95.5811 194.075 97.4359 195.777C102.615 200.523 108.32 204.661 114.44 208.109C116.727 209.398 119.068 210.587 121.465 211.676" stroke="black" stroke-width="5.15"/>
<path d="M133.295 215.771C133.295 215.771 133.295 215.771 133.315 215.771C136.057 216.014 138.812 216.079 141.563 215.964C148.951 215.689 155.609 212.229 161.061 206.44C178.201 188.248 183.335 147.075 161.316 109.654C161.305 109.638 161.295 109.621 161.286 109.603C156.445 101.396 146.933 95.2916 136.908 92.382" stroke="black" stroke-width="5.15"/>
<path d="M161.293 109.613C161.293 109.613 186.887 160.655 133.751 177.458" stroke="black" stroke-width="5.15"/>
<path d="M120.173 169.567C124.543 165.73 143.104 148.211 137.988 132.348C132.199 114.401 136.969 109.613 136.969 109.613" stroke="black" stroke-width="5.15"/>
<path opacity="0.28" d="M97.5964 67.451L99.9354 68.0116L95.1301 79.1509H92.3402L97.5964 67.451Z" fill="white"/>
<path opacity="0.28" d="M76.477 67.451L78.816 68.0116L74.0107 79.1509H71.2233L76.477 67.451Z" fill="white"/>
<path d="M117.865 91.0367C117.865 91.0367 82.4773 101.126 73.2463 116.77" stroke="black" stroke-width="5.15"/>
<path d="M64.4052 79.1432C58.2903 95.2739 58.0152 112.678 59.0547 123.856C59.4335 127.889 61.6216 131.532 65.0036 133.761C68.3856 135.99 72.5963 136.564 76.4516 135.321L104.881 126.317" stroke="black" stroke-width="5.15"/>
<path d="M117.865 91.0367C117.141 93.4368 116.69 96.028 116.805 98.5377C116.917 100.961 118.033 103.914 120.372 104.997C121.829 105.669 123.564 105.486 125.045 104.869C130.095 102.772 134.75 97.6688 137.106 92.8381L135.226 88.3615" stroke="black" stroke-width="5.15"/>
<path d="M121.651 104.811L117.083 86.8098" stroke="black" stroke-width="5.15"/>
<path d="M128.573 84.9626C128.573 84.9626 123.368 90.4864 114.504 85.6454C105.64 80.8045 111.987 75.5762 111.987 75.5762" stroke="black" stroke-width="5.15"/>
<path d="M86.9055 203.062C91.5197 203.592 96.7352 204.644 102.083 205.982C102.473 206.073 102.86 206.175 103.258 206.277C107.505 207.37 111.824 208.626 115.997 209.91C122.41 211.913 128.444 214.005 133.292 215.771C134.271 216.127 135.211 216.476 136.095 216.79C139.259 217.974 141.831 220.353 143.259 223.414C144.403 225.875 145.507 230.724 143.535 233.03C142.926 233.767 142.039 234.221 141.084 234.283C140.13 234.345 139.192 234.011 138.492 233.359C136.156 231.193 119.557 222.168 82.3983 220.005C55.3654 218.433 52.8634 210.461 53.508 206.247" stroke="black" stroke-width="5.15"/>
<path d="M103.258 206.282C105.604 205.634 107.997 205.17 110.415 204.894" stroke="black" stroke-width="5.15"/>
<path d="M87.3641 65.7184C88.2437 65.7968 89.1176 65.9296 89.9808 66.1159L112.356 71.4665V74.8984C112.355 75.2748 112.085 75.5964 111.714 75.6628L88.9285 79.7649" stroke="black" stroke-width="5.15"/>
<path d="M120.451 65.3286C120.451 65.3286 119.218 55.5295 127.987 54.6275C137.988 53.6084 146.638 61.5985 146.638 61.5985" stroke="black" stroke-width="5.15"/>
<path d="M68.7443 65.4815H66.4767C64.4017 65.4829 62.7199 67.1647 62.7185 69.2396V76.0068C62.7172 77.0062 63.1134 77.9651 63.8199 78.672C64.5263 79.3789 65.4849 79.7758 66.4843 79.7751H79.1778C81.1473 79.7751 82.0951 80.0605 83.4022 78.5012C84.7602 76.8782 86.373 75.2042 88.6712 75.3673C91.2191 75.5609 90.3655 77.7444 88.926 79.7776C87.833 81.3064 86.3781 82.779 85.8227 83.1867C83.8898 84.5829 81.7368 85.6456 79.453 86.3308C77.3907 86.9696 75.9209 88.794 75.7356 90.945C75.1131 98.0023 75.7954 105.114 77.7485 111.924" stroke="black" stroke-width="5.15"/>
<path d="M82.4799 68.5161C82.4085 70.1085 83.657 71.9863 85.7921 71.2194C86.6633 70.8896 87.3312 70.1728 87.5986 69.2804C87.8941 68.3199 87.9859 67.023 87.4763 66.0854C87.4219 65.9688 87.3534 65.8593 87.2724 65.7593C87.2521 65.7389 87.2317 65.7083 87.2113 65.6879" stroke="black" stroke-width="5.15"/>
<path d="M81.5728 64.5567C82.248 65.6905 82.6913 67.0842 82.4977 68.4116C82.3397 69.497 81.6926 70.5467 80.6913 70.9926C79.9799 71.3336 79.1399 71.2634 78.495 70.8092C78.1199 70.4812 77.8407 70.0577 77.6873 69.5836C77.1242 68.1059 77.1089 66.4192 77.1956 64.8599C77.1956 65.9172 77.2618 66.9746 76.8822 67.9861C76.6676 68.596 76.2687 69.124 75.7407 69.497C75.2035 69.8668 74.5257 69.9683 73.9037 69.7722C73.0502 69.4715 72.5482 68.5645 72.3903 67.6753C72.2323 66.7861 72.3393 65.8714 72.296 64.9669C72.2705 66.0599 72.2272 67.2141 71.6336 68.1339C71.3253 68.6154 70.8233 69.0231 70.2526 69.0333C69.8832 69.029 69.5284 68.8883 69.2564 68.6384C68.9886 68.3879 68.7805 68.0806 68.6474 67.739C68.315 66.909 68.315 65.9829 68.6474 65.1529C68.86 64.5578 69.2998 64.0713 69.8704 63.7999C70.3772 63.5833 70.9556 63.6131 71.4374 63.8807C71.9192 64.1482 72.2503 64.6235 72.3342 65.1682C72.6316 64.4797 73.2108 63.9524 73.9241 63.721C74.6367 63.4979 75.4041 63.5239 76.1 63.7949C76.4072 63.8968 76.6852 64.0717 76.9102 64.3044C77.1343 64.5434 77.235 64.8727 77.1828 65.1962C77.3927 64.4832 77.9034 63.8973 78.5812 63.5922C79.259 63.2871 80.0362 63.2932 80.7091 63.6089C81.3002 63.8636 81.6008 64.5516 81.8735 65.1019C81.8735 64.7299 82.5461 64.1439 82.834 63.9987C84.5615 63.1248 86.6558 64.6076 87.4966 66.0803" stroke="black" stroke-width="5.15"/>
<path d="M130.658 57.1118C130.658 57.1118 126.706 60.0011 128.365 64.9414C128.966 66.725 130.202 67.8511 131.753 68.8422C133.223 69.7799 134.171 70.9952 133.58 72.8016C132.958 74.6488 131.149 75.5788 133.376 76.9674C135.071 78.0299 137.838 77.7318 138.571 79.7701C139.98 83.6276 134.029 84.7002 135.305 88.6418" stroke="black" stroke-width="5.15"/>
<path d="M188.887 158.265C184.066 157.386 180.438 154.418 177.908 150.303C175.615 146.578 174.29 142.325 173.424 138.073C173.424 138.05 173.424 138.037 173.424 138.03L166.068 111.277C166.06 111.27 166.054 111.261 166.05 111.252C166.045 111.232 166.037 111.213 166.027 111.196C166.027 111.196 166.027 111.18 166.027 111.175C165.928 110.905 165.635 110.179 165.263 109.063C165.265 109.056 165.265 109.049 165.263 109.043C164.108 105.554 163.302 101.96 162.855 98.3135C162.723 97.2459 162.618 96.1248 162.562 94.9757C162.562 94.7209 162.532 94.4662 162.506 94.2241C162.279 91.9691 161.676 89.768 160.723 87.7117C160.656 87.5461 160.575 87.3805 160.498 87.2327C160.389 87.006 160.287 86.7869 160.17 86.5677C159.828 85.8926 159.469 85.2709 159.1 84.6772C158.886 84.3358 158.669 84.0148 158.46 83.6988C157.821 82.7561 157.186 81.9459 156.621 81.2682L156.07 80.6414C155.958 80.5038 155.841 80.3739 155.731 80.2643C155.459 79.9662 155.222 79.7343 155.038 79.5407C154.977 79.4694 151.55 77.7827 151.494 77.7393L151.864 75.5711C155.204 75.5711 161.235 77.6706 163.734 79.1101C168.718 81.9867 172.01 87.541 172.991 93.0878C173.536 96.1758 173.638 99.3377 174.16 102.428C175.454 110.164 180.785 116.658 185.771 122.577C187.796 124.967 190.255 127.227 192.612 129.408C192.811 129.601 193.012 129.792 193.208 129.971C193.58 130.307 193.939 130.646 194.288 130.99L194.456 131.156C197.184 133.756 199.444 136.806 201.137 140.173C201.148 140.177 201.155 140.187 201.155 140.198C201.736 141.386 202.082 142.675 202.174 143.994C202.171 144.019 202.171 144.044 202.174 144.068C202.281 145.217 202.306 146.41 202.38 147.635C202.376 147.859 202.359 148.081 202.329 148.303C202.323 148.479 202.305 148.654 202.276 148.828C202.245 149.147 202.194 149.465 202.123 149.778C202.121 149.835 202.109 149.891 202.087 149.944C202.065 150.085 202.035 150.226 201.998 150.364C201.955 150.537 201.912 150.711 201.866 150.874C201.82 151.037 201.766 151.207 201.715 151.383C201.642 151.61 201.563 151.832 201.461 152.048C201.401 152.222 201.332 152.392 201.252 152.558C201.139 152.815 201.011 153.065 200.869 153.307C200.823 153.414 200.765 153.516 200.699 153.613C200.596 153.811 200.481 154.001 200.352 154.183C197.825 157.921 193.152 159.045 188.887 158.265Z" fill="#2E2E2E"/>
<path d="M166.02 111.167C165.459 109.894 164.868 108.62 164.259 107.346C164.585 107.893 164.914 108.454 165.237 109.037C165.239 109.044 165.239 109.051 165.237 109.058C168.682 115.318 175.875 147.51 173.121 135.892C171.811 130.371 168.173 114.561 173.408 138.03L166.053 111.277C166.045 111.27 166.039 111.261 166.035 111.252C166.03 111.232 166.022 111.213 166.012 111.195C166.012 111.195 166.027 111.173 166.02 111.167Z" fill="#2E2E2E"/>
<path d="M151.999 73.7774C156.126 73.7774 161.171 75.7418 163.676 77.1788C168.667 80.0426 171.954 85.6123 172.927 91.159C173.47 94.2521 173.577 97.4064 174.096 100.505C175.393 108.237 179.518 115.089 184.515 121.002C187.043 123.953 189.733 126.76 192.574 129.41C195.506 132.19 198.311 134.506 200.217 138.132C202.689 142.858 203.471 149.521 200.36 154.16C197.837 157.918 193.172 159.047 188.894 158.27C184.071 157.391 180.435 154.423 177.911 150.313C175.386 146.203 174.344 141.599 173.07 136.983L168.871 121.606C166.774 113.927 163.775 106.245 162.822 98.3109C162.695 97.2357 162.6 96.1197 162.537 94.9783C162.537 94.7235 162.498 94.4687 162.473 94.2139C162.085 90.7526 160.907 87.4267 159.028 84.4938C158.104 83.0238 157.026 81.6571 155.81 80.4172C154.559 79.1432 152.87 78.5012 151.479 77.426" stroke="black" stroke-width="5.15"/>
<path d="M112.354 71.8639L114.835 70.3351C115.056 70.1118 115.18 69.8109 115.182 69.4969V68.0573C115.18 67.5076 115.558 67.0295 116.094 66.9057C117.611 66.5798 119.076 66.0465 120.448 65.3209C121.378 64.8114 122.153 64.1489 122.502 63.3514C123.509 61.0174 125.325 59.1255 127.615 58.0238C128.58 57.5719 129.604 57.262 130.658 57.104C132.925 56.7397 135.753 56.9053 139.303 58.0111C139.787 58.1614 140.263 58.3448 140.729 58.541L142.819 59.4226C145.168 60.3678 147.262 61.8514 148.934 63.754C150.042 65.0231 150.868 66.5134 151.357 68.1261C153.217 74.4678 151.186 82.5013 145.496 86.295C142.538 88.2646 138.811 88.8022 135.325 88.6493" stroke="black" stroke-width="5.15"/>
<path d="M122.645 66.4446C122.645 66.4446 124.303 67.953 123.307 70.3582" stroke="black" stroke-width="5.15"/>
<path d="M0 216.028H61.0726" stroke="black" stroke-width="5.15"/>
<path d="M136.09 216.802H191.409" stroke="black" stroke-width="5.15"/>
<path d="M97.4384 47.975L101.783 45.5673L102.351 53.137L107.538 50.263L106.797 62.0164L104.537 55.374L100.239 57.8659L97.4384 47.975Z" fill="#D7E8F0"/>
<path d="M126.015 27.75L130.892 31.0265L122.456 36.8561L128.283 40.7671L114.397 47.9801L120.943 40.8639L115.992 37.702L126.015 27.75Z" fill="#2945FF"/>
<path d="M108.491 25.4111L103.765 20.5828L102.529 22.3281L100.825 20.5828L96.8626 26.178L84.5207 12.3252L88.3298 7.17847L94.9441 18.1114L96.5569 15.9381L101.416 9.36454L102.509 11.8436L108.491 25.4111Z" fill="#3FBDF1"/>
<path fill-rule="evenodd" clip-rule="evenodd" d="M81.5881 12.3226L87.0074 5L94.9415 18.1114L101.413 9.36451L110.889 30.8533L100.827 20.5777L95.5708 28.0201L81.5881 12.3226Z" fill="#2945FF" stroke="black" stroke-width="5.15"/>
</svg>
