<svg width="208" height="208" viewBox="0 0 208 208" fill="none" xmlns="http://www.w3.org/2000/svg">
<path fill-rule="evenodd" clip-rule="evenodd" d="M125.951 44.7837C119.145 45.6924 111.958 47.0141 104 48.7071C96.0418 47.0141 88.855 45.6924 82.049 44.7837C88.3519 47.1064 94.7427 49.9924 101.522 53.1852C103.036 53.898 104 55.4238 104 57.0973C104 55.4238 104.964 53.898 106.478 53.1852C113.257 49.9924 119.648 47.1064 125.951 44.7837ZM104 157.814C104 160.997 100.681 163.091 97.7812 161.779C76.8967 152.326 59.2891 147.229 35.68 151.538C32.9342 152.039 30.3333 149.982 30.3333 147.191V46.6843C27.2125 47.3105 23.9817 48.0276 20.6119 48.8397C18.6818 49.3047 17.3333 51.0393 17.3333 53.0248V163.691C17.3333 166.433 19.8583 168.482 22.5517 167.968C49.4728 162.832 67.6212 162.472 92.4118 166.231C94.5615 170.447 98.9434 173.333 104 173.333C109.057 173.333 113.438 170.447 115.588 166.231C140.379 162.472 158.527 162.832 185.448 167.968C188.142 168.482 190.667 166.433 190.667 163.691V53.0248C190.667 51.0393 189.318 49.3047 187.388 48.8397C184.018 48.0276 180.788 47.3105 177.667 46.6843V147.191C177.667 149.982 175.066 152.039 172.32 151.538C148.711 147.229 131.103 152.326 110.219 161.779C107.319 163.091 104 160.997 104 157.814Z" fill="#2945FF"/>
<path fill-rule="evenodd" clip-rule="evenodd" d="M34.6667 45.6625V147.19C34.6667 147.192 34.6667 147.194 34.6667 147.195C34.6708 147.201 34.6797 147.212 34.696 147.225C34.7224 147.246 34.7557 147.263 34.7904 147.272C34.8207 147.28 34.8555 147.283 34.9019 147.275C59.738 142.742 78.2951 148.203 99.5683 157.831C99.59 157.841 99.6004 157.843 99.6017 157.843H99.6064C99.6134 157.842 99.6324 157.838 99.6545 157.824C99.6593 157.821 99.6636 157.818 99.6667 157.815C99.6667 157.815 99.6667 157.816 99.6667 157.815V57.1012C76.6268 46.2505 59.1864 39.5301 34.6667 45.6625ZM32.4307 37.288C60.1397 30.3169 80.0146 38.266 103.368 49.2644C106.406 50.6952 108.333 53.752 108.333 57.0969V157.814C108.333 164.22 101.694 168.306 95.9946 165.726C75.4984 156.45 58.8402 151.716 36.458 155.801C31.2018 156.76 26 152.837 26 147.19V45.604C26 41.7688 28.5523 38.2638 32.4307 37.288Z" fill="#2945FF"/>
<path fill-rule="evenodd" clip-rule="evenodd" d="M173.333 45.6625V147.19C173.333 147.192 173.333 147.194 173.333 147.195C173.329 147.201 173.32 147.212 173.304 147.225C173.277 147.246 173.245 147.263 173.209 147.272C173.18 147.28 173.144 147.283 173.098 147.275C148.262 142.742 129.705 148.203 108.432 157.831C108.41 157.841 108.4 157.843 108.398 157.843H108.394C108.387 157.842 108.368 157.838 108.345 157.824C108.341 157.821 108.336 157.817 108.333 157.814C108.333 157.815 108.333 157.814 108.333 157.814V57.0969C131.373 46.2466 148.814 39.5301 173.333 45.6625ZM175.569 37.288C147.86 30.3169 127.985 38.266 104.632 49.2644C101.594 50.6952 99.6667 53.7559 99.6667 57.1012V157.815C99.6667 164.221 106.306 168.306 112.005 165.726C132.502 156.45 149.16 151.716 171.542 155.801C176.798 156.76 182 152.837 182 147.19V45.604C182 41.7688 179.448 38.2638 175.569 37.288Z" fill="#2945FF"/>
<path fill-rule="evenodd" clip-rule="evenodd" d="M47.7117 125.678C63.6111 125.513 72.4832 127.12 89.362 134.012L92.638 125.988C74.7539 118.686 64.7404 116.834 47.6216 117.012L47.7117 125.678Z" fill="#2945FF"/>
<path fill-rule="evenodd" clip-rule="evenodd" d="M47.7117 108.344C63.6111 108.18 72.4832 109.787 89.362 116.678L92.638 108.655C74.7539 101.352 64.7404 99.5011 47.6216 99.6783L47.7117 108.344Z" fill="#2945FF"/>
<path fill-rule="evenodd" clip-rule="evenodd" d="M47.7117 91.0109C63.6111 90.8467 72.4832 92.4535 89.362 99.3452L92.638 91.3216C74.7539 84.019 64.7404 82.1679 47.6216 82.3451L47.7117 91.0109Z" fill="#2945FF"/>
<path fill-rule="evenodd" clip-rule="evenodd" d="M58.5 56.3334V69.3334H49.8333V56.3334H58.5Z" fill="#2945FF"/>
<path fill-rule="evenodd" clip-rule="evenodd" d="M73.6667 60.6666V73.6666H65V60.6666H73.6667Z" fill="#2945FF"/>
<path fill-rule="evenodd" clip-rule="evenodd" d="M88.8334 65V78H80.1667V65H88.8334Z" fill="#2945FF"/>
<path fill-rule="evenodd" clip-rule="evenodd" d="M160.288 125.678C144.389 125.513 135.517 127.12 118.638 134.012L115.362 125.988C133.246 118.686 143.26 116.834 160.378 117.012L160.288 125.678Z" fill="#2945FF"/>
<path fill-rule="evenodd" clip-rule="evenodd" d="M160.288 108.344C144.389 108.18 135.517 109.787 118.638 116.678L115.362 108.655C133.246 101.352 143.26 99.5011 160.378 99.6783L160.288 108.344Z" fill="#2945FF"/>
<path fill-rule="evenodd" clip-rule="evenodd" d="M160.288 91.0109C144.389 90.8467 135.517 92.4535 118.638 99.3452L115.362 91.3216C133.246 84.019 143.26 82.1679 160.378 82.3451L160.288 91.0109Z" fill="#2945FF"/>
<path fill-rule="evenodd" clip-rule="evenodd" d="M149.5 56.3334V69.3334H158.167V56.3334H149.5Z" fill="#2945FF"/>
<path fill-rule="evenodd" clip-rule="evenodd" d="M134.333 60.6666V73.6666H143V60.6666H134.333Z" fill="#2945FF"/>
<path fill-rule="evenodd" clip-rule="evenodd" d="M119.167 65V78H127.833V65H119.167Z" fill="#2945FF"/>
</svg>
