<svg width="208" height="208" viewBox="0 0 208 208" fill="none" xmlns="http://www.w3.org/2000/svg">
<path fill-rule="evenodd" clip-rule="evenodd" d="M83.0956 93.8054C81.055 95.0565 80.415 97.7245 81.6656 99.7646C85.6462 106.258 89.0366 112.703 91.289 118.557C92.1488 120.79 94.6565 121.904 96.8899 121.044C99.1233 120.185 100.237 117.677 99.3776 115.443C96.8695 108.927 93.1953 101.989 89.0548 95.2354C87.8037 93.1949 85.1357 92.5548 83.0956 93.8054Z" fill="#2945FF"/>
<path fill-rule="evenodd" clip-rule="evenodd" d="M128.224 89.6679C130.156 91.0802 130.577 93.7915 129.165 95.7238C124.151 102.584 119.735 111.757 116.627 118.758C115.657 120.945 113.097 121.932 110.909 120.961C108.722 119.99 107.735 117.43 108.706 115.242C111.841 108.177 116.568 98.2718 122.168 90.6096C123.58 88.6773 126.292 88.2561 128.224 89.6679Z" fill="#2945FF"/>
<path fill-rule="evenodd" clip-rule="evenodd" d="M118.039 52.1595C128.187 40.5561 182.455 26 182.455 26C182.455 26 173.231 84.045 165.113 93.3279C159.066 100.241 139.805 95.9205 130.367 93.2642C137.424 82.4456 145.598 71.8774 152.79 63.4868C154.348 61.6698 154.137 58.9342 152.32 57.3764C150.503 55.819 147.768 56.0296 146.21 57.8465C138.961 66.3039 130.557 77.126 123.204 88.3822C119.065 80.6862 110.014 61.3353 118.039 52.1595ZM47.6667 130H26V182H47.6667V173.146C52.088 172.965 58.6118 172.733 60.8725 172.824C68.6127 173.137 74.3929 174.983 80.2373 176.849C85.6895 178.591 91.1976 180.349 98.4052 180.898C100.217 181.036 101.98 181.214 103.689 181.386C109.86 182.01 115.331 182.562 119.853 180.898C125.627 178.773 158.623 162.626 162.747 158.376C166.872 154.127 164.81 142.654 152.024 144.778C145.715 145.827 138.402 148.841 131.769 151.574C124.96 154.381 118.868 156.892 115.316 156.676C108.304 156.251 89.7438 152.852 89.7438 152.852L111.054 153.111C111.054 153.111 114.065 153.272 118.203 150.303C122.341 147.333 126.039 138.829 119.853 138.829C113.666 138.829 107.067 136.705 107.067 136.705L80.6698 130.755C80.6698 130.755 71.5962 129.056 67.8838 130.755C64.8284 132.155 52.0802 136.721 47.6667 138.292V130ZM38.4699 41.9009C38.4699 41.9009 83.2559 53.9136 91.6305 63.4894C98.098 70.8847 91.1252 86.2888 87.6139 92.9214C82.898 85.4607 77.6473 78.2253 72.7363 71.9962C71.2547 70.1168 68.5299 69.7944 66.6506 71.276C64.7712 72.758 64.4488 75.4823 65.9304 77.3621C70.7971 83.535 75.8858 90.574 80.3859 97.7071C72.2934 99.8989 57.5532 102.919 52.7826 97.464C46.0828 89.8036 38.4699 41.9009 38.4699 41.9009Z" fill="#2945FF"/>
</svg>
