<svg width="530" height="530" viewBox="0 0 530 530" fill="none" xmlns="http://www.w3.org/2000/svg">
<path d="M265 522C406.937 522 522 406.937 522 265C522 123.063 406.937 8 265 8C123.063 8 8 123.063 8 265C8 406.937 123.063 522 265 522Z" fill="url(#paint0_linear_0_1)" stroke="white" stroke-width="16"/>
<path d="M145.541 147.961C145.665 147.814 145.812 147.678 145.948 147.539C172.534 121.134 215.496 117.739 249.8 128.512C266.571 133.774 279.728 148.561 295.496 155.898C300.743 158.331 306.273 159.934 312.32 160.1C328.141 160.534 342.916 150.074 358.695 151.277C378.839 152.786 390.702 173.156 393.569 191.262C398.299 221.202 384.599 253.688 367.541 277.607C358.178 290.75 347.643 302.881 337.533 315.42C329.691 325.178 324.523 339.939 334.893 350.078C348.661 363.534 352.897 333.756 369.129 340.554C409.54 357.472 404.931 393.741 395.757 409.268C387.383 423.47 371.238 432.998 354.776 434.345C352.162 434.56 349.536 434.56 346.922 434.345" stroke="#CCDDE2" stroke-width="4"/>
<path d="M218.378 336.963V337.087C218.378 339.86 230.652 350.433 232.501 352.391" stroke="#CCDDE2" stroke-width="4"/>
<path d="M180.184 434.209C176.461 434.334 172.942 434.319 169.6 434.183C130.92 429.434 101.825 352.391 147.336 329.003" stroke="#CCDDE2" stroke-width="4"/>
<path d="M224.055 234.544V156.487C224.049 151.779 220.234 147.964 215.526 147.958H106.51C101.81 147.974 98.0062 151.786 98 156.487V311.255C98.0062 315.961 101.824 319.771 106.529 319.769H215.545C216.602 319.776 217.651 319.575 218.63 319.177" stroke="black" stroke-width="4" stroke-linecap="round" stroke-linejoin="round"/>
<rect x="101.825" y="153.182" width="118.405" height="161.389" rx="18.62" fill="#2945FF"/>
<rect x="108.796" y="165.672" width="105.757" height="30.2151" rx="9.31" fill="#3FBDF1"/>
<circle cx="161.026" cy="175.272" r="3.12713" fill="#D7E8F0"/>
<path d="M152.297 189.414C152.231 186.251 153.88 183.301 156.609 181.7C159.337 180.1 162.718 180.1 165.446 181.7C168.174 183.301 169.824 186.251 169.758 189.414H152.297Z" fill="#D7E8F0"/>
<path d="M119.373 209.376H201.603" stroke="white" stroke-width="5.4"/>
<path d="M119.373 217.471H201.603" stroke="white" stroke-width="5.4"/>
<path d="M119.373 269.595H201.603" stroke="white" stroke-width="5.4"/>
<path d="M138.472 277.249H182.504" stroke="white" stroke-width="5.4"/>
<path d="M140.211 248.064L133.651 255.035C132.203 256.573 130.045 257.222 127.989 256.738C125.933 256.254 124.292 254.709 123.683 252.687C123.075 250.664 123.592 248.47 125.039 246.932L131.595 239.961L140.211 248.064Z" fill="#3FBDF1"/>
<path d="M146.763 241.085L140.203 248.064L131.587 239.961L138.151 232.986C140.393 230.616 144.128 230.501 146.51 232.73C148.871 234.975 148.984 238.702 146.763 241.085V241.085Z" fill="#D7E8F0"/>
<path d="M172.259 236.543C171.98 235.193 174.749 232.96 175.654 232.473C179.023 230.708 184.206 232.039 186.05 235.412C190.286 243.145 178.385 254.167 172.24 256.891C171.535 256.325 154.722 243.748 158.66 235.698C162.599 227.649 171.282 231.738 172.259 236.543V236.543Z" fill="#D7E8F0"/>
<path d="M159.573 250.327H168.736" stroke="white" stroke-width="5.4" stroke-linecap="round" stroke-linejoin="round"/>
<path d="M164.153 254.906V245.744" stroke="white" stroke-width="5.4" stroke-linecap="round" stroke-linejoin="round"/>
<path fill-rule="evenodd" clip-rule="evenodd" d="M341.109 252.387C341.109 252.387 319.947 240.983 306.3 238.226C306.3 238.226 306.205 240.263 303.934 245.291C301.664 250.319 294.964 265.178 294.964 265.178L284.908 257.539L285.058 268.928L257.469 298.396L240.03 260.221L242.354 249.482L232.418 253.288L227.11 234.352C227.11 234.352 200.946 240.236 178.411 258.369C155.877 276.502 149.422 304.767 147.329 329.003C145.235 353.239 147.751 378.796 179.769 387.43C179.769 387.43 194.813 391.203 207.061 386.156C210.879 384.579 216.424 383.108 222.24 381.817L222.052 381.885C222.052 381.885 219.411 391.048 211.761 396.035C211.761 396.035 225.164 406.22 248.065 410.66C270.966 415.099 319.359 417.755 343.75 396.593C368.141 375.431 369.137 340.542 369.137 340.542C369.137 340.542 377.058 273.183 341.109 252.387ZM215.794 311.919C213.476 311.843 211.651 309.917 211.698 307.599C211.745 305.281 213.647 303.431 215.966 303.449C218.284 303.467 220.158 305.345 220.169 307.664C220.128 310.044 218.174 311.944 215.794 311.919ZM308.661 351.424C308.712 351.154 308.755 350.929 308.789 350.754C309.36 347.896 305.476 346.126 295.529 341.595C294.107 340.947 292.561 340.243 290.886 339.471C277.499 333.3 249.419 341.851 249.419 341.851C249.419 341.851 236.982 362.481 249.336 376.955C255.251 376.427 259.521 376.265 259.521 376.265C270.131 375.164 277.464 376.162 283.291 376.956C288.347 377.644 292.27 378.178 296.217 377.053C304.255 374.762 307.764 356.176 308.661 351.424Z" fill="#2945FF"/>
<path d="M332.354 407.83V434.349C289.54 434.349 231.614 434.281 189.766 434.228C189.249 420.58 188.434 389.185 191.897 388.962C196.329 388.69 201.018 385.85 206.427 392.308C211.837 398.766 234.481 410.316 266.201 413.032C297.922 415.748 324.67 408.276 330.611 405.043C330.615 405.047 332.354 401.946 332.354 407.83Z" fill="#2945FF"/>
<path fill-rule="evenodd" clip-rule="evenodd" d="M205.1 307.683C205.1 301.889 209.887 297.192 215.794 297.192V297.189C221.697 297.189 226.488 301.889 226.488 307.683C226.488 313.477 221.701 318.173 215.794 318.173C209.887 318.173 205.1 313.477 205.1 307.683ZM223.772 307.683C223.772 303.398 220.192 299.912 215.794 299.912C211.395 299.912 207.819 303.398 207.819 307.683C207.819 311.968 211.395 315.454 215.794 315.454C220.192 315.454 223.772 311.968 223.772 307.683Z" fill="white"/>
<path d="M269.804 249.844L262.946 257.551C262.492 257.916 261.907 258.079 261.329 258.002C260.751 257.925 260.23 257.615 259.887 257.143L255.062 246.762L264.455 239.297L269.804 249.844Z" fill="#2945FF"/>
<path d="M265.455 254.725L268.363 266.408L259.875 277.185L253.538 263.13L258.235 253.609" fill="#2945FF"/>
<path d="M294.342 171.043C292.833 171.383 291.513 172.552 290.505 173.801C289.569 174.972 288.776 176.251 288.144 177.611C288.144 177.611 284.96 164.031 283.617 152.25C283.169 148.418 281.826 146.366 280.192 145.332C276.824 143.197 272.271 145.479 272.271 145.479L257.144 153.718C254.242 155.317 251.048 156.315 247.752 156.652C246.211 156.83 244.656 156.83 243.116 156.652C234.783 152.533 234.662 136.283 244.787 136.17C245.091 136.454 245.377 136.758 245.643 137.079C245.497 136.779 245.361 136.481 245.236 136.185C245.802 136.202 246.366 136.265 246.922 136.373C247.752 136.535 248.525 137.392 249.042 137.992C246.352 132.771 249.219 126.192 254.519 124.197C257.74 122.986 261.343 123.216 264.704 123.925C265.236 124.031 265.764 124.155 266.296 124.302C274.723 126.845 282.101 131.262 287.552 138.637C294.451 147.965 296.175 159.776 294.342 171.043V171.043Z" fill="#2E2E2E"/>
<path d="M198.268 312.13C189.038 353.247 224.47 346.359 270.513 338.253C286.963 335.359 300.962 342.5 309.072 349.162" stroke="black" stroke-width="5.4" stroke-linejoin="round"/>
<path d="M227.11 234.348C206.186 239.497 181.501 251.987 167.921 268.939C150.143 291.1 146.42 320.569 146.823 348.155C147.2 375.107 175.443 393.722 201.078 387.898" stroke="black" stroke-width="5.4" stroke-linejoin="round"/>
<path d="M237.948 224.28H237.963" stroke="black" stroke-width="5.4" stroke-linejoin="round"/>
<path d="M311.335 313.647C311.335 313.647 312.09 331.485 309.072 349.162C307.703 357.23 305.549 365.265 302.188 371.557C300.351 374.941 296.841 377.079 292.991 377.159C289.545 377.222 286.098 377.084 282.667 376.748C253.101 373.971 225.39 380.063 205.183 386.759C203.825 387.204 202.459 387.581 201.086 387.891C213.832 399.456 246.624 420.837 308.623 411.565C391.988 399.117 365.934 289.033 365.934 289.033C363.671 277.174 356.602 266.163 348.103 257.822C338.476 248.392 319.812 242.156 307.122 238.207" stroke="black" stroke-width="5.4" stroke-linejoin="round"/>
<path d="M262.531 217.483C262.531 217.483 237.167 212.956 240.566 183.043C242.075 169.734 244.983 161.594 247.733 156.637" stroke="black" stroke-width="5.4" stroke-linejoin="round"/>
<path d="M286.552 209.614C291.237 202.613 290.521 193.318 291.992 190.979C294.255 187.35 303.308 176.03 297.876 171.952C296.624 171.013 295.428 170.821 294.342 171.04C290.687 171.854 288.144 177.607 288.144 177.607C288.144 177.607 284.964 164.027 283.618 152.243C282.271 140.458 272.267 145.475 272.267 145.475L257.141 153.71C254.24 155.313 251.045 156.312 247.748 156.649C246.023 156.852 244.279 156.838 242.557 156.607C230.864 155.098 230.109 132.959 243.523 135.483C244.353 135.645 245.126 136.501 245.643 137.101C242.95 131.881 245.82 125.302 251.12 123.306C254.342 122.096 257.944 122.326 261.305 123.035C271.799 125.249 281.052 129.825 287.552 138.637C294.455 147.973 296.183 159.783 294.342 171.051" stroke="black" stroke-width="5.4" stroke-linejoin="round"/>
<path d="M259.362 189.387H253.927L254.281 185.08L255.734 167.641" stroke="black" stroke-width="5.4" stroke-linejoin="round"/>
<path d="M254.27 185.08H239.34C237.136 185.08 235.349 183.293 235.349 181.089V167.645H260.585V181.089C260.587 183.293 262.375 185.08 264.579 185.08H279.385C281.59 185.08 283.378 183.293 283.38 181.089V167.645H260.585" stroke="black" stroke-width="5.4" stroke-linejoin="round"/>
<path d="M259.362 194.585C259.362 194.585 263.214 195.943 267.518 189.372" stroke="black" stroke-width="5.4" stroke-linejoin="round"/>
<path d="M257.314 299.716L285.424 268.52L284.911 257.536L294.632 265.914L307.122 238.222L307.156 238.15C304.102 236.351 301.252 234.225 298.657 231.809C297.463 230.688 296.331 229.516 295.262 228.294C294.001 226.862 292.825 225.358 291.739 223.79L290.86 222.549" stroke="black" stroke-width="5.4" stroke-linejoin="round"/>
<path d="M275.753 256.457L269.966 248.486L263.795 240.353L276.748 232.515L290.871 222.549L295.251 228.294L296.722 230.229L293.15 234.804L265.255 270.61V270.625L259.977 277.185" stroke="black" stroke-width="5.4" stroke-linejoin="round"/>
<path d="M248.698 251.923L263.787 240.365L245.251 221.839L238.227 228.463L259.973 277.196L257.314 299.72L240.034 260.221L242.346 249.486L232.41 253.281L226.643 234.544C233.272 231.986 239.266 228.018 244.21 222.915L245.258 221.828" stroke="black" stroke-width="5.4" stroke-linejoin="round"/>
<path d="M269.966 249.844L263.097 257.551C262.643 257.916 262.059 258.079 261.482 258.002C260.904 257.925 260.384 257.615 260.041 257.143L255.213 246.762" stroke="black" stroke-width="5.4" stroke-linejoin="round"/>
<path d="M265.617 254.725L268.529 266.408" stroke="black" stroke-width="5.4" stroke-linejoin="round"/>
<path d="M258.397 253.609L253.7 263.13" stroke="black" stroke-width="5.4" stroke-linejoin="round"/>
<path d="M290.86 222.549L286.552 209.599C285.38 211.242 283.868 212.615 282.12 213.624" stroke="black" stroke-width="5.4" stroke-linejoin="round"/>
<path d="M248.219 209.599L245.258 221.828" stroke="black" stroke-width="5.4" stroke-linejoin="round"/>
<circle cx="268.695" cy="176.532" r="1.98417" fill="black"/>
<circle cx="251.392" cy="176.532" r="1.98417" fill="black"/>
<path d="M306.79 238.343C306.79 238.343 320.136 243.465 308.148 264.178C304.376 270.674 302.331 274.522 301.286 276.725" stroke="black" stroke-width="5.4" stroke-linejoin="round"/>
<path d="M278.472 322.33C278.472 322.33 273.255 319.995 273.414 318.558C273.572 317.121 284.066 282.798 291.354 278.354C298.642 273.911 303.312 277.743 303.312 277.743C303.312 277.743 310.389 281.576 308.257 291.583C306.126 301.591 293.074 325.495 293.074 325.495L287.956 323.745" stroke="black" stroke-width="5.4" stroke-linejoin="round"/>
<path d="M222.056 235.785C222.056 235.785 214.474 260.682 216.02 297.758" stroke="black" stroke-width="5.4" stroke-linejoin="round"/>
<ellipse cx="215.784" cy="307.686" rx="11.3278" ry="10.9054" transform="rotate(-0.28 215.784 307.686)" stroke="black" stroke-width="5.4" stroke-linejoin="round"/>
<path d="M332.369 434.349V404.16V403.387" stroke="black" stroke-width="5.4" stroke-linejoin="round"/>
<path d="M190.026 434.239V388.939V388.924" stroke="black" stroke-width="5.4" stroke-linejoin="round"/>
<path d="M135.907 434.145C135.907 434.145 158.291 434.187 189.77 434.228C231.641 434.281 289.555 434.349 332.358 434.349C365.357 434.349 389.359 434.281 390.072 434.145" stroke="black" stroke-width="5.4" stroke-linejoin="round"/>
<circle cx="280.128" cy="322.738" r="2.75746" fill="white"/>
<circle cx="286.582" cy="323.273" r="2.75746" fill="white"/>
<circle cx="374.391" cy="153.182" r="45.5" fill="#3FBDF1"/>
<path d="M374.225 95C353.44 95.0008 334.233 106.09 323.84 124.091C313.444 142.09 313.444 164.27 323.84 182.269C334.233 200.27 353.44 211.36 374.225 211.36C395.011 211.36 414.217 200.27 424.61 182.269C435.003 164.269 435.003 142.091 424.61 124.091C414.217 106.09 395.011 95.0008 374.225 95Z" fill="#2945FF"/>
<path d="M387.726 138.437L386.172 137.343L401.943 114.713L403.497 115.807L387.726 138.437Z" fill="white"/>
<path d="M354.895 179.558L359.472 173.014L363.604 175.904L359.027 182.448L354.895 179.558Z" fill="white"/>
<path d="M390.397 144.359L368.857 175.151C367.726 176.792 365.806 177.445 364.599 176.604L358.48 172.33C357.277 171.488 357.239 169.478 358.386 167.833L379.925 137.041C381.057 135.4 382.977 134.744 384.184 135.589L390.302 139.866C391.506 140.704 391.543 142.714 390.397 144.359V144.359Z" fill="white"/>
<path d="M364.04 189.568C363.623 190.187 363.023 190.66 362.324 190.923C361.747 191.166 361.087 191.106 360.562 190.764L346.605 180.991C345.625 180.304 345.602 178.644 346.534 177.313C346.953 176.691 347.555 176.214 348.258 175.951C348.835 175.721 349.489 175.784 350.012 176.121L363.969 185.894C364.931 186.577 364.961 188.229 364.04 189.568V189.568Z" fill="white"/>
<circle cx="393.079" cy="239.961" r="16.3071" fill="#D7E8F0"/>
<circle cx="387.831" cy="235.646" r="5.2471" fill="white"/>
<circle cx="131.595" cy="388.113" r="16.3071" fill="#D7E8F0"/>
<circle cx="342.603" cy="225.623" r="8.15168" fill="#D7E8F0"/>
<circle cx="127.483" cy="383.481" r="5.2471" fill="white"/>
<circle cx="401.392" cy="391.636" r="8.15168" fill="#D7E8F0"/>
<circle cx="339.699" cy="223.658" r="2.90458" fill="white"/>
<circle cx="398.001" cy="389.95" r="2.02566" fill="white"/>
<circle cx="209.238" cy="123.163" r="8.15168" fill="#D7E8F0"/>
<circle cx="208" cy="122.439" r="2.90458" fill="white"/>
<circle cx="376.775" cy="319.98" r="30.1925" fill="white"/>
<circle cx="376.775" cy="319.98" r="23.2517" fill="#2945FF"/>
<path d="M376.489 315.273C376.213 313.922 378.978 311.689 379.902 311.202C383.275 309.437 388.454 310.769 390.302 314.141C394.535 321.874 382.633 332.9 376.492 335.62C375.783 335.054 358.971 322.477 362.912 314.428C366.854 306.378 375.515 310.471 376.489 315.273V315.273Z" fill="white"/>
<defs>
<linearGradient id="paint0_linear_0_1" x1="265" y1="16" x2="265" y2="514" gradientUnits="userSpaceOnUse">
<stop stop-color="#EDF5FF"/>
<stop offset="1" stop-color="#F1F7FF"/>
</linearGradient>
</defs>
</svg>
