<svg width="737" height="666" viewBox="0 0 737 666" fill="none" xmlns="http://www.w3.org/2000/svg">
<path d="M0.677438 666L265.178 154L598.25 485.501L265.177 666L0.677438 666Z" fill="url(#paint0_linear_0_1)"/>
<circle cx="472" cy="265" r="257" fill="url(#paint1_linear_0_1)" stroke="white" stroke-width="16"/>
<path d="M352.541 147.961C352.665 147.814 352.812 147.678 352.948 147.539C379.534 121.134 422.496 117.739 456.8 128.512C473.571 133.774 486.728 148.561 502.496 155.898C507.743 158.331 513.273 159.934 519.32 160.1C535.141 160.534 549.916 150.074 565.695 151.277C585.839 152.786 597.702 173.156 600.569 191.262C605.299 221.202 591.599 253.688 574.541 277.607C565.178 290.75 554.643 302.881 544.533 315.42C536.691 325.178 531.523 339.939 541.893 350.078C555.661 363.534 559.897 333.756 576.129 340.554C616.54 357.472 611.931 393.741 602.757 409.268C594.383 423.47 578.238 432.998 561.776 434.345C559.162 434.56 556.536 434.56 553.922 434.345" stroke="#CCDDE2" stroke-width="4"/>
<path d="M425.378 336.963V337.087C425.378 339.86 437.652 350.433 439.501 352.391" stroke="#CCDDE2" stroke-width="4"/>
<path d="M387.184 434.209C383.461 434.334 379.942 434.319 376.6 434.183C337.92 429.434 308.825 352.391 354.336 329.003" stroke="#CCDDE2" stroke-width="4"/>
<path d="M431.055 234.544V156.487C431.049 151.779 427.234 147.964 422.526 147.958H313.51C308.81 147.974 305.006 151.786 305 156.487V311.255C305.006 315.961 308.824 319.771 313.529 319.769H422.545C423.602 319.776 424.651 319.575 425.63 319.177" stroke="black" stroke-width="4" stroke-linecap="round" stroke-linejoin="round"/>
<rect x="308.825" y="153.182" width="118.405" height="161.389" rx="18.62" fill="#2945FF"/>
<rect x="315.796" y="165.672" width="105.757" height="30.2151" rx="9.31" fill="#3FBDF1"/>
<circle cx="368.026" cy="175.272" r="3.12713" fill="#D7E8F0"/>
<path d="M359.297 189.414C359.231 186.251 360.88 183.301 363.609 181.7C366.337 180.1 369.718 180.1 372.446 181.7C375.174 183.301 376.824 186.251 376.758 189.414H359.297Z" fill="#D7E8F0"/>
<path d="M326.373 209.376H408.603" stroke="white" stroke-width="5.4"/>
<path d="M326.373 217.471H408.603" stroke="white" stroke-width="5.4"/>
<path d="M326.373 269.595H408.603" stroke="white" stroke-width="5.4"/>
<path d="M345.472 277.249H389.504" stroke="white" stroke-width="5.4"/>
<path d="M347.211 248.064L340.651 255.035C339.203 256.573 337.045 257.222 334.989 256.738C332.933 256.254 331.292 254.709 330.683 252.687C330.075 250.664 330.592 248.47 332.039 246.932L338.595 239.961L347.211 248.064Z" fill="#3FBDF1"/>
<path d="M353.763 241.085L347.203 248.064L338.587 239.961L345.151 232.986C347.393 230.616 351.128 230.501 353.51 232.73C355.871 234.975 355.984 238.702 353.763 241.085Z" fill="#D7E8F0"/>
<path d="M379.259 236.543C378.98 235.193 381.749 232.96 382.654 232.473C386.023 230.708 391.206 232.039 393.05 235.412C397.286 243.145 385.385 254.167 379.24 256.891C378.535 256.325 361.722 243.748 365.66 235.698C369.599 227.649 378.282 231.738 379.259 236.543Z" fill="#D7E8F0"/>
<path d="M366.573 250.327H375.736" stroke="white" stroke-width="5.4" stroke-linecap="round" stroke-linejoin="round"/>
<path d="M371.153 254.906V245.744" stroke="white" stroke-width="5.4" stroke-linecap="round" stroke-linejoin="round"/>
<path fill-rule="evenodd" clip-rule="evenodd" d="M548.109 252.387C548.109 252.387 526.947 240.983 513.3 238.226C513.3 238.226 513.205 240.263 510.934 245.291C508.664 250.319 501.964 265.178 501.964 265.178L491.908 257.539L492.058 268.928L464.469 298.396L447.03 260.221L449.354 249.482L439.418 253.288L434.11 234.352C434.11 234.352 407.946 240.236 385.411 258.369C362.877 276.502 356.422 304.767 354.329 329.003C352.235 353.239 354.751 378.796 386.769 387.43C386.769 387.43 401.813 391.203 414.061 386.156C417.879 384.579 423.424 383.108 429.24 381.817L429.052 381.885C429.052 381.885 426.411 391.048 418.761 396.035C418.761 396.035 432.164 406.22 455.065 410.66C477.966 415.099 526.359 417.755 550.75 396.593C575.141 375.431 576.137 340.542 576.137 340.542C576.137 340.542 584.058 273.183 548.109 252.387ZM422.794 311.919C420.476 311.843 418.651 309.917 418.698 307.599C418.745 305.281 420.647 303.431 422.966 303.449C425.284 303.467 427.158 305.345 427.169 307.664C427.128 310.044 425.174 311.944 422.794 311.919ZM515.661 351.424C515.712 351.154 515.755 350.929 515.789 350.754C516.36 347.896 512.476 346.126 502.529 341.595C501.107 340.947 499.561 340.243 497.886 339.471C484.499 333.3 456.419 341.851 456.419 341.851C456.419 341.851 443.982 362.481 456.336 376.955C462.251 376.427 466.521 376.265 466.521 376.265C477.131 375.164 484.464 376.162 490.291 376.956C495.347 377.644 499.27 378.178 503.217 377.053C511.255 374.762 514.764 356.176 515.661 351.424Z" fill="#2945FF"/>
<path d="M539.354 407.83V434.349C496.54 434.349 438.614 434.281 396.766 434.228C396.249 420.58 395.434 389.185 398.897 388.962C403.329 388.69 408.018 385.85 413.427 392.308C418.837 398.766 441.481 410.316 473.201 413.032C504.922 415.748 531.67 408.276 537.611 405.043C537.615 405.047 539.354 401.946 539.354 407.83Z" fill="#2945FF"/>
<path fill-rule="evenodd" clip-rule="evenodd" d="M412.1 307.683C412.1 301.889 416.887 297.192 422.794 297.192V297.189C428.697 297.189 433.488 301.889 433.488 307.683C433.488 313.477 428.701 318.173 422.794 318.173C416.887 318.173 412.1 313.477 412.1 307.683ZM430.772 307.683C430.772 303.398 427.192 299.912 422.794 299.912C418.395 299.912 414.819 303.398 414.819 307.683C414.819 311.968 418.395 315.454 422.794 315.454C427.192 315.454 430.772 311.968 430.772 307.683Z" fill="white"/>
<path d="M476.804 249.844L469.946 257.551C469.492 257.916 468.907 258.079 468.329 258.002C467.751 257.925 467.23 257.615 466.887 257.143L462.062 246.762L471.455 239.297L476.804 249.844Z" fill="#2945FF"/>
<path d="M472.455 254.725L475.363 266.408L466.875 277.185L460.538 263.13L465.235 253.609" fill="#2945FF"/>
<path d="M501.342 171.043C499.833 171.383 498.513 172.552 497.505 173.801C496.569 174.972 495.776 176.251 495.144 177.611C495.144 177.611 491.96 164.031 490.617 152.25C490.169 148.418 488.826 146.366 487.192 145.332C483.824 143.197 479.271 145.479 479.271 145.479L464.144 153.718C461.242 155.317 458.048 156.315 454.752 156.652C453.211 156.83 451.656 156.83 450.116 156.652C441.783 152.533 441.662 136.283 451.787 136.17C452.091 136.454 452.377 136.758 452.643 137.079C452.497 136.779 452.361 136.481 452.236 136.185C452.802 136.202 453.366 136.265 453.922 136.373C454.752 136.535 455.525 137.392 456.042 137.992C453.352 132.771 456.219 126.192 461.519 124.197C464.74 122.986 468.343 123.216 471.704 123.925C472.236 124.031 472.764 124.155 473.296 124.302C481.723 126.845 489.101 131.262 494.552 138.637C501.451 147.965 503.175 159.776 501.342 171.043Z" fill="#2E2E2E"/>
<path d="M405.268 312.13C396.038 353.247 431.47 346.359 477.513 338.253C493.963 335.359 507.962 342.5 516.072 349.162" stroke="black" stroke-width="5.4" stroke-linejoin="round"/>
<path d="M434.11 234.348C413.186 239.497 388.501 251.987 374.921 268.939C357.143 291.1 353.42 320.569 353.823 348.155C354.2 375.107 382.443 393.722 408.078 387.898" stroke="black" stroke-width="5.4" stroke-linejoin="round"/>
<path d="M444.948 224.28H444.963" stroke="black" stroke-width="5.4" stroke-linejoin="round"/>
<path d="M518.335 313.647C518.335 313.647 519.09 331.485 516.072 349.162C514.703 357.23 512.549 365.265 509.188 371.557C507.351 374.941 503.841 377.079 499.991 377.159C496.545 377.222 493.098 377.084 489.667 376.748C460.101 373.971 432.39 380.063 412.183 386.759C410.825 387.204 409.459 387.581 408.086 387.891C420.832 399.456 453.624 420.837 515.623 411.565C598.988 399.117 572.934 289.033 572.934 289.033C570.671 277.174 563.602 266.163 555.103 257.822C545.476 248.392 526.812 242.156 514.122 238.207" stroke="black" stroke-width="5.4" stroke-linejoin="round"/>
<path d="M469.531 217.483C469.531 217.483 444.167 212.956 447.566 183.043C449.075 169.734 451.983 161.594 454.733 156.637" stroke="black" stroke-width="5.4" stroke-linejoin="round"/>
<path d="M493.552 209.614C498.237 202.613 497.521 193.318 498.992 190.979C501.255 187.35 510.308 176.03 504.876 171.952C503.624 171.013 502.428 170.821 501.342 171.04C497.687 171.854 495.144 177.607 495.144 177.607C495.144 177.607 491.964 164.027 490.618 152.243C489.271 140.458 479.267 145.475 479.267 145.475L464.141 153.71C461.24 155.313 458.045 156.312 454.748 156.649C453.023 156.852 451.279 156.838 449.557 156.607C437.864 155.098 437.109 132.959 450.523 135.483C451.353 135.645 452.126 136.501 452.643 137.101C449.95 131.881 452.82 125.302 458.12 123.306C461.342 122.096 464.944 122.326 468.305 123.035C478.799 125.249 488.052 129.825 494.552 138.637C501.455 147.973 503.183 159.783 501.342 171.051" stroke="black" stroke-width="5.4" stroke-linejoin="round"/>
<path d="M466.362 189.387H460.927L461.281 185.08L462.734 167.641" stroke="black" stroke-width="5.4" stroke-linejoin="round"/>
<path d="M461.27 185.08H446.34C444.136 185.08 442.349 183.293 442.349 181.089V167.645H467.585V181.089C467.587 183.293 469.375 185.08 471.579 185.08H486.385C488.59 185.08 490.378 183.293 490.38 181.089V167.645H467.585" stroke="black" stroke-width="5.4" stroke-linejoin="round"/>
<path d="M466.362 194.585C466.362 194.585 470.214 195.943 474.518 189.372" stroke="black" stroke-width="5.4" stroke-linejoin="round"/>
<path d="M464.314 299.716L492.424 268.52L491.911 257.536L501.632 265.914L514.122 238.222L514.156 238.15C511.102 236.351 508.252 234.225 505.657 231.809C504.463 230.688 503.331 229.516 502.262 228.294C501.001 226.862 499.825 225.358 498.739 223.79L497.86 222.549" stroke="black" stroke-width="5.4" stroke-linejoin="round"/>
<path d="M482.753 256.457L476.966 248.486L470.795 240.353L483.748 232.515L497.871 222.549L502.251 228.294L503.722 230.229L500.15 234.804L472.255 270.61V270.625L466.977 277.185" stroke="black" stroke-width="5.4" stroke-linejoin="round"/>
<path d="M455.698 251.923L470.787 240.365L452.251 221.839L445.227 228.463L466.973 277.196L464.314 299.72L447.034 260.221L449.346 249.486L439.41 253.281L433.643 234.544C440.272 231.986 446.266 228.018 451.21 222.915L452.258 221.828" stroke="black" stroke-width="5.4" stroke-linejoin="round"/>
<path d="M476.966 249.844L470.097 257.551C469.643 257.916 469.059 258.079 468.482 258.002C467.904 257.925 467.384 257.615 467.041 257.143L462.213 246.762" stroke="black" stroke-width="5.4" stroke-linejoin="round"/>
<path d="M472.617 254.725L475.529 266.408" stroke="black" stroke-width="5.4" stroke-linejoin="round"/>
<path d="M465.397 253.609L460.7 263.13" stroke="black" stroke-width="5.4" stroke-linejoin="round"/>
<path d="M497.86 222.549L493.552 209.599C492.38 211.242 490.868 212.615 489.12 213.624" stroke="black" stroke-width="5.4" stroke-linejoin="round"/>
<path d="M455.219 209.599L452.258 221.828" stroke="black" stroke-width="5.4" stroke-linejoin="round"/>
<circle cx="475.695" cy="176.532" r="1.98417" fill="black"/>
<circle cx="458.392" cy="176.532" r="1.98417" fill="black"/>
<path d="M513.79 238.343C513.79 238.343 527.136 243.465 515.148 264.178C511.376 270.674 509.331 274.522 508.286 276.725" stroke="black" stroke-width="5.4" stroke-linejoin="round"/>
<path d="M485.472 322.33C485.472 322.33 480.255 319.995 480.414 318.558C480.572 317.121 491.066 282.798 498.354 278.354C505.642 273.911 510.312 277.743 510.312 277.743C510.312 277.743 517.389 281.576 515.257 291.583C513.126 301.591 500.074 325.495 500.074 325.495L494.956 323.745" stroke="black" stroke-width="5.4" stroke-linejoin="round"/>
<path d="M429.056 235.785C429.056 235.785 421.474 260.682 423.02 297.758" stroke="black" stroke-width="5.4" stroke-linejoin="round"/>
<ellipse cx="422.784" cy="307.686" rx="11.3278" ry="10.9054" transform="rotate(-0.28 422.784 307.686)" stroke="black" stroke-width="5.4" stroke-linejoin="round"/>
<path d="M539.369 434.349V404.16V403.387" stroke="black" stroke-width="5.4" stroke-linejoin="round"/>
<path d="M397.026 434.239V388.939V388.924" stroke="black" stroke-width="5.4" stroke-linejoin="round"/>
<path d="M342.907 434.145C342.907 434.145 365.291 434.187 396.77 434.228C438.641 434.281 496.555 434.349 539.358 434.349C572.357 434.349 596.359 434.281 597.072 434.145" stroke="black" stroke-width="5.4" stroke-linejoin="round"/>
<circle cx="487.128" cy="322.738" r="2.75746" fill="white"/>
<circle cx="493.582" cy="323.273" r="2.75746" fill="white"/>
<circle cx="581.391" cy="153.182" r="45.5" fill="#3FBDF1"/>
<path d="M581.225 95C560.44 95.0008 541.233 106.09 530.84 124.091C520.444 142.09 520.444 164.27 530.84 182.269C541.233 200.27 560.44 211.36 581.225 211.36C602.011 211.36 621.217 200.27 631.61 182.269C642.003 164.269 642.003 142.091 631.61 124.091C621.217 106.09 602.011 95.0008 581.225 95Z" fill="#2945FF"/>
<path d="M594.726 138.437L593.172 137.343L608.943 114.713L610.497 115.807L594.726 138.437Z" fill="white"/>
<path d="M561.895 179.558L566.472 173.014L570.604 175.904L566.027 182.448L561.895 179.558Z" fill="white"/>
<path d="M597.397 144.359L575.857 175.151C574.726 176.792 572.806 177.445 571.599 176.604L565.48 172.33C564.277 171.488 564.239 169.478 565.386 167.833L586.925 137.041C588.057 135.4 589.977 134.744 591.184 135.589L597.302 139.866C598.506 140.704 598.543 142.714 597.397 144.359Z" fill="white"/>
<path d="M571.04 189.568C570.623 190.187 570.023 190.66 569.324 190.923C568.747 191.166 568.087 191.106 567.562 190.764L553.605 180.991C552.625 180.304 552.602 178.644 553.534 177.313C553.953 176.691 554.555 176.214 555.258 175.951C555.835 175.721 556.489 175.784 557.012 176.121L570.969 185.894C571.931 186.577 571.961 188.229 571.04 189.568Z" fill="white"/>
<circle cx="600.079" cy="239.961" r="16.3071" fill="#D7E8F0"/>
<circle cx="594.831" cy="235.646" r="5.2471" fill="white"/>
<circle cx="338.595" cy="388.113" r="16.3071" fill="#D7E8F0"/>
<circle cx="549.603" cy="225.623" r="8.15168" fill="#D7E8F0"/>
<circle cx="334.483" cy="383.481" r="5.2471" fill="white"/>
<circle cx="608.392" cy="391.636" r="8.15168" fill="#D7E8F0"/>
<circle cx="546.699" cy="223.658" r="2.90458" fill="white"/>
<circle cx="605.001" cy="389.95" r="2.02566" fill="white"/>
<circle cx="416.238" cy="123.163" r="8.15168" fill="#D7E8F0"/>
<circle cx="415" cy="122.439" r="2.90458" fill="white"/>
<circle cx="583.775" cy="319.98" r="30.1925" fill="white"/>
<circle cx="583.775" cy="319.98" r="23.2517" fill="#2945FF"/>
<path d="M583.489 315.273C583.213 313.922 585.978 311.689 586.902 311.202C590.275 309.437 595.454 310.769 597.302 314.141C601.535 321.874 589.633 332.9 583.492 335.62C582.783 335.054 565.971 322.477 569.912 314.428C573.854 306.378 582.515 310.471 583.489 315.273Z" fill="white"/>
<defs>
<linearGradient id="paint0_linear_0_1" x1="609.178" y1="220.5" x2="270.751" y2="656.501" gradientUnits="userSpaceOnUse">
<stop offset="0.545011" stop-color="#EDF5FF"/>
<stop offset="1" stop-color="white" stop-opacity="0"/>
</linearGradient>
<linearGradient id="paint1_linear_0_1" x1="472" y1="16" x2="472" y2="514" gradientUnits="userSpaceOnUse">
<stop stop-color="#EDF5FF"/>
<stop offset="1" stop-color="#F1F7FF"/>
</linearGradient>
</defs>
</svg>
