<svg width="170" height="53" viewBox="0 0 170 53" fill="none" xmlns="http://www.w3.org/2000/svg">
<path d="M38.6337 11.1C41.5737 11.1 43.6737 12.12 45.4737 13.08L48.1137 8.28C45.6538 6.66 42.5938 5.4 38.0337 5.4C32.8737 5.46 27.8937 9.24 28.0137 15.18C28.1937 21.42 33.7737 25.68 38.3937 29.7C41.2737 32.28 43.8537 34.68 43.9137 37.32C43.9738 40.44 41.5137 42.84 38.1537 42.9C34.6137 43.02 31.3137 41.1 28.8537 38.82L25.4937 43.38C28.8537 46.68 32.8737 48.72 38.1537 48.6C44.9937 48.48 50.0938 44.04 49.9737 36.96C49.8537 31.26 45.8337 28.02 41.9937 24.6C38.2737 21.18 34.3137 18.24 34.1937 14.7C34.1937 12.24 36.4737 11.16 38.6337 11.1ZM75.2188 48H80.3187V18H75.2188V22.2C72.8188 19.8 69.4587 17.88 65.9188 17.88C57.9987 17.88 51.5187 24.72 51.5187 33C51.5187 41.64 57.5187 48.12 65.7987 48.12C69.3388 48.12 72.8188 46.2 75.2188 43.8V48ZM56.9187 33C56.9187 27.72 60.9387 23.28 65.9188 23.28C71.2587 23.28 74.9188 27.72 74.9188 33C74.9188 38.28 71.2587 42.72 65.9188 42.72C60.9387 42.72 56.9187 38.28 56.9187 33ZM102.5 18V33.54C102.5 37.08 101.72 39.42 100.64 40.56C99.26 42.06 97.22 42.72 95.3 42.72C93.44 42.72 91.64 42 90.32 40.8C89 39.54 88.1 37.32 88.1 33.54V18H83V32.22C83 39.12 84.26 42.66 86.54 44.94C88.64 47.1 91.64 48.12 95.3 48.12C98.72 48.12 101.54 46.98 103.58 45C106.16 42.48 107.6 38.64 107.6 32.04V18H102.5ZM132.498 48H137.598V3H132.498V22.2C130.098 19.8 126.738 17.88 123.198 17.88C115.278 17.88 108.798 24.72 108.798 33C108.798 41.64 114.798 48.12 123.078 48.12C126.618 48.12 130.098 46.2 132.498 43.8V48ZM114.198 33C114.198 27.72 118.218 23.28 123.198 23.28C128.538 23.28 132.198 27.72 132.198 33C132.198 38.28 128.538 42.72 123.198 42.72C118.218 42.72 114.198 38.28 114.198 33ZM167.639 35.46C167.759 34.26 167.819 33.24 167.819 32.22C167.819 26.58 165.899 23.58 163.919 21.66C161.519 19.32 158.339 17.88 154.679 17.88C146.759 17.88 140.279 24.6 140.279 32.88C140.279 37.26 141.899 41.28 144.659 44.04C147.179 46.62 150.659 48.12 154.619 48.12C158.939 48.12 162.659 46.62 165.239 43.92L161.459 40.32C159.779 41.88 157.319 42.72 154.619 42.72C150.479 42.72 147.059 39.6 145.979 35.46H167.639ZM154.439 23.28C158.699 23.28 161.999 26.4 162.659 30.66H145.919C146.819 26.46 150.179 23.28 154.439 23.28Z" fill="#2945FF"/>
<line x1="11.5" y1="17.5" x2="11.5" y2="37.5" stroke="#2945FF" stroke-width="3" stroke-linecap="round"/>
<line x1="1.5" y1="27.5" x2="21.5" y2="27.5" stroke="#2945FF" stroke-width="3" stroke-linecap="round"/>
</svg>
