<svg width="163" height="163" viewBox="0 0 163 163" fill="none" xmlns="http://www.w3.org/2000/svg">
<path d="M27.0094 18.1111C32.0166 18.1111 36.0755 14.0568 36.0755 9.05556C36.0755 4.05431 32.0166 0 27.0094 0C23.6536 0 20.7239 1.82107 19.1564 4.52778H17.9434C10.4328 4.52778 4.34431 10.6093 4.34431 18.1111V58.8611C1.84091 58.8611 -0.209968 60.8927 0.0172273 63.383C1.07111 74.9343 6.13794 85.8104 14.416 94.0791C20.4864 100.142 27.9604 104.481 36.0755 106.779V117.722C36.0755 123.637 39.8605 128.669 45.1433 130.533C45.3364 148.497 59.9758 163 78.0059 163C96.1565 163 110.87 148.303 110.87 130.174V112.062C110.87 102.685 118.481 95.0833 127.869 95.0833C137.257 95.0833 144.868 102.685 144.868 112.062V123.023C139.586 124.887 135.802 129.919 135.802 135.833C135.802 143.335 141.89 149.417 149.401 149.417C156.912 149.417 163 143.335 163 135.833C163 129.919 159.216 124.887 153.934 123.023V112.062C153.934 97.6841 142.264 86.0278 127.869 86.0278C113.474 86.0278 101.804 97.6841 101.804 112.062V130.174C101.804 143.302 91.1494 153.944 78.0059 153.944C64.9821 153.944 54.402 143.495 54.2103 130.532C59.4908 128.666 63.2736 123.636 63.2736 117.722V106.779C71.3886 104.481 78.8631 100.142 84.9332 94.0791C93.2114 85.8104 98.278 74.9343 99.3319 63.383C99.5595 60.8927 97.5083 58.8611 95.0047 58.8611V18.1111C95.0047 10.6093 88.9164 4.52778 81.4056 4.52778H80.1926C78.6251 1.82107 75.6954 0 72.3396 0C67.3324 0 63.2736 4.05431 63.2736 9.05556C63.2736 14.0568 67.3324 18.1111 72.3396 18.1111C75.6954 18.1111 78.6251 16.29 80.1926 13.5833H81.4056C83.9092 13.5833 85.9387 15.6105 85.9387 18.1111V58.8611H86.8883C84.3848 58.8611 82.3875 60.8982 82.0416 63.3749C81.0648 70.3644 77.8368 76.8953 72.7834 81.9433C66.6543 88.0648 58.3421 91.5041 49.6745 91.5041C41.0074 91.5041 32.6947 88.0648 26.5661 81.9433C21.5122 76.8953 18.2847 70.3644 17.3078 63.3749C16.9617 60.8982 14.9645 58.8611 12.461 58.8611H13.4104V18.1111C13.4104 15.6105 15.4399 13.5833 17.9434 13.5833H19.1564C20.7239 16.29 23.6536 18.1111 27.0094 18.1111Z" fill="#2945FF"/>
</svg>
